#define adj_width 16
#define adj_height 16
static char adj_bits[] = {
   0x80, 0x01, 0xe0, 0x07, 0x38, 0x1c, 0x3e, 0x7c, 0x21, 0x84, 0xe0, 0x07,
   0xe0, 0x07, 0x20, 0x04, 0x20, 0x04, 0xe0, 0x07, 0xe0, 0x07, 0x21, 0x84,
   0x3e, 0x7c, 0x38, 0x1c, 0xe0, 0x07, 0x80, 0x01};
