#define aix4mp_width 64
#define aix4mp_height 64
static unsigned char aix4mp_bits[] = {
   0x00, 0x00, 0x00, 0x00, 0x00, 0x00, 0x00, 0x00, 0x00, 0x00, 0x00, 0x00,
   0x00, 0x00, 0x00, 0x00, 0x00, 0x00, 0x00, 0x00, 0x00, 0x00, 0x00, 0x00,
   0x80, 0xbf, 0xff, 0xf0, 0x01, 0x1f, 0x00, 0x00, 0x00, 0x00, 0x00, 0x00,
   0x00, 0x00, 0x00, 0x00, 0x80, 0xbf, 0xff, 0xf3, 0x83, 0x1f, 0x00, 0x00,
   0x00, 0x00, 0x00, 0x00, 0x00, 0x00, 0x00, 0x00, 0x00, 0x0e, 0x8e, 0xc7,
   0xc7, 0x07, 0x00, 0x00, 0x00, 0x00, 0x00, 0x00, 0x00, 0x00, 0x00, 0x00,
   0x00, 0x0e, 0xfe, 0xc3, 0xef, 0x07, 0x00, 0x00, 0x00, 0x00, 0x00, 0x00,
   0x00, 0x00, 0x00, 0x00, 0x00, 0x0e, 0xfe, 0xc3, 0x7d, 0x07, 0x00, 0x00,
   0x00, 0x00, 0x00, 0x00, 0x00, 0x00, 0xe0, 0x00, 0x00, 0x0e, 0x8e, 0xc7,
   0x39, 0x07, 0x10, 0x01, 0x00, 0x00, 0x00, 0x00, 0x00, 0x00, 0x10, 0x01,
   0x80, 0xbf, 0xff, 0xf3, 0x11, 0x1f, 0xf0, 0x01, 0x00, 0x00, 0x00, 0x00,
   0x00, 0x00, 0x10, 0x01, 0x80, 0xbf, 0xff, 0xf0, 0x01, 0x1f, 0x10, 0x01,
   0x00, 0x00, 0x00, 0x00, 0x00, 0x00, 0x00, 0x00, 0x00, 0x00, 0x00, 0x00,
   0x00, 0x00, 0xf0, 0x01, 0x00, 0x00, 0x00, 0x00, 0x00, 0x00, 0x40, 0x00,
   0x00, 0x00, 0x00, 0x00, 0x00, 0x00, 0x40, 0x00, 0x00, 0x00, 0xe0, 0xff,
   0xff, 0x1f, 0x40, 0x00, 0x00, 0x00, 0x1c, 0x00, 0x00, 0x17, 0x40, 0x00,
   0x00, 0x80, 0x03, 0x00, 0xe0, 0x1a, 0xf0, 0x01, 0x00, 0x70, 0x00, 0x00,
   0x58, 0x15, 0x00, 0x00, 0x00, 0x0c, 0x00, 0x00, 0xaf, 0x1a, 0x10, 0x01,
   0x00, 0xff, 0xff, 0xff, 0x55, 0x15, 0xa0, 0x00, 0x00, 0x01, 0x00, 0x80,
   0xaa, 0x1a, 0x40, 0x00, 0x00, 0x01, 0xf8, 0x9f, 0x55, 0x15, 0x40, 0x00,
   0x00, 0x01, 0x18, 0x90, 0xaa, 0x1a, 0x40, 0x00, 0x00, 0x01, 0x18, 0x90,
   0x55, 0x15, 0xa0, 0x00, 0x00, 0xfd, 0xfb, 0x9f, 0xaa, 0x1a, 0x10, 0x01,
   0x00, 0xfd, 0x1b, 0x90, 0x55, 0x15, 0x00, 0x00, 0x00, 0x01, 0x18, 0x90,
   0xaa, 0x1a, 0x10, 0x01, 0x00, 0xfd, 0xfb, 0x9f, 0x55, 0x15, 0x10, 0x01,
   0x00, 0xfd, 0x1b, 0x90, 0xaa, 0x1a, 0x10, 0x01, 0x00, 0x01, 0x18, 0x90,
   0x55, 0x15, 0xf0, 0x01, 0x00, 0xfd, 0xfb, 0x9f, 0xaa, 0x1a, 0x00, 0x01,
   0x00, 0xfd, 0xdb, 0x97, 0x55, 0x15, 0x00, 0x01, 0x00, 0x01, 0x18, 0x92,
   0xaa, 0x1a, 0x00, 0x01, 0x00, 0xfd, 0xfb, 0x9f, 0x55, 0x15, 0x00, 0x00,
   0x00, 0xfd, 0x1b, 0x95, 0xaa, 0x1a, 0x10, 0x01, 0x00, 0x01, 0x48, 0x95,
   0x55, 0x15, 0xb0, 0x01, 0x00, 0x01, 0xf8, 0x9f, 0xaa, 0x1a, 0x50, 0x01,
   0x00, 0x01, 0x58, 0x96, 0x55, 0x15, 0x10, 0x01, 0x00, 0x01, 0x48, 0x96,
   0xaa, 0x1a, 0x10, 0x01, 0x00, 0x01, 0xf8, 0x9f, 0x55, 0x15, 0x10, 0x01,
   0x00, 0x01, 0x18, 0x90, 0xaa, 0x1a, 0x10, 0x01, 0x00, 0x01, 0x18, 0x90,
   0x55, 0x15, 0x00, 0x00, 0x00, 0x01, 0x18, 0x90, 0xaa, 0x1a, 0xf0, 0x00,
   0x00, 0x01, 0x18, 0x90, 0x55, 0x15, 0x10, 0x01, 0x00, 0x01, 0xf8, 0x9f,
   0xaa, 0x1a, 0x10, 0x01, 0x00, 0x01, 0x18, 0x90, 0x55, 0x15, 0xf0, 0x00,
   0x00, 0x01, 0xc8, 0x90, 0xaa, 0x1a, 0x10, 0x00, 0x00, 0x01, 0x08, 0x90,
   0x55, 0x15, 0x10, 0x00, 0x00, 0x01, 0xf8, 0x9f, 0xaa, 0x1a, 0x10, 0x00,
   0x00, 0x01, 0x00, 0x80, 0x55, 0x07, 0x00, 0x00, 0x00, 0x01, 0x00, 0x80,
   0xea, 0x00, 0x00, 0x00, 0x00, 0x01, 0x00, 0x80, 0x1d, 0x00, 0x00, 0x00,
   0x00, 0xff, 0xff, 0xff, 0x07, 0x00, 0x00, 0x00, 0x00, 0x00, 0x00, 0x00,
   0x00, 0x00, 0x00, 0x00, 0x00, 0x00, 0x00, 0x00, 0x00, 0x00, 0x00, 0x00,
   0x00, 0x00, 0x00, 0x00, 0x00, 0x00, 0x00, 0x00};
