#define alliant_width 64
#define alliant_height 64
static char alliant_bits[] = {
   0x00, 0x00, 0x00, 0x00, 0x00, 0x00, 0x00, 0x00, 0x00, 0x00, 0x00, 0x00,
   0x00, 0x00, 0x00, 0x00, 0x00, 0x00, 0x00, 0xf8, 0x3f, 0x00, 0x00, 0x00,
   0x00, 0x00, 0x80, 0x07, 0xc1, 0x03, 0x00, 0x00, 0x00, 0x00, 0x60, 0x00,
   0x01, 0x0c, 0x00, 0x00, 0x00, 0x00, 0x18, 0x00, 0x01, 0x38, 0x00, 0x00,
   0x00, 0x00, 0x16, 0x00, 0x01, 0xc8, 0x00, 0x00, 0x00, 0x00, 0x21, 0xf0,
   0x1f, 0x04, 0x01, 0x00, 0x00, 0xc0, 0x20, 0x0f, 0xe0, 0x07, 0x06, 0x00,
   0x00, 0x20, 0xc0, 0xf0, 0x1f, 0x04, 0x08, 0x00, 0x00, 0x10, 0x30, 0x0e,
   0xe0, 0x19, 0x10, 0x00, 0x00, 0x08, 0xc8, 0x01, 0x00, 0x26, 0x30, 0x00,
   0x00, 0x14, 0x26, 0x00, 0x00, 0xc8, 0x48, 0x00, 0x00, 0x22, 0x19, 0xf0,
   0x1f, 0x30, 0x85, 0x00, 0x00, 0xc2, 0x04, 0x0e, 0x60, 0x40, 0x82, 0x00,
   0x00, 0x41, 0x82, 0xe1, 0x8f, 0x83, 0x04, 0x01, 0x80, 0x20, 0x41, 0x1c,
   0x71, 0x04, 0x09, 0x02, 0x80, 0xa0, 0x20, 0x03, 0x81, 0x09, 0x0a, 0x02,
   0x40, 0x50, 0x90, 0x00, 0x01, 0x12, 0x14, 0x04, 0x40, 0x48, 0x68, 0xe0,
   0x0f, 0x2c, 0x24, 0x04, 0x20, 0x28, 0x14, 0x18, 0x30, 0x50, 0x28, 0x08,
   0x20, 0x14, 0x12, 0xe6, 0xcf, 0x90, 0x50, 0x08, 0x10, 0x14, 0x09, 0x19,
   0x30, 0x21, 0x51, 0x10, 0x10, 0x12, 0x85, 0x04, 0x40, 0x42, 0x91, 0x10,
   0x10, 0x8a, 0x44, 0xc2, 0x87, 0x44, 0xa2, 0x10, 0x10, 0x8a, 0x42, 0x31,
   0x18, 0x85, 0xa2, 0x10, 0x08, 0x8a, 0xa2, 0xc8, 0x27, 0x8a, 0xa2, 0x20,
   0x08, 0x45, 0xa2, 0x24, 0x48, 0x8a, 0x04, 0x21, 0x08, 0x45, 0x51, 0x14,
   0x50, 0x14, 0x45, 0x21, 0x08, 0x45, 0x51, 0x0a, 0xa0, 0x14, 0x45, 0x21,
   0xf8, 0x7d, 0x5f, 0x0a, 0xa0, 0xf4, 0x7d, 0x3f, 0x00, 0x00, 0x40, 0x0a,
   0xa0, 0x04, 0x00, 0x00, 0x00, 0x00, 0x40, 0x0a, 0xa0, 0x04, 0x00, 0x00,
   0xc0, 0x7f, 0x5f, 0x0a, 0xa0, 0xf4, 0xfd, 0x07, 0x40, 0x40, 0x51, 0x14,
   0x50, 0x14, 0x05, 0x04, 0x40, 0x40, 0xa2, 0x24, 0x48, 0x8a, 0x04, 0x04,
   0x40, 0xc0, 0xa2, 0xc8, 0x27, 0x8a, 0x04, 0x04, 0x80, 0xb8, 0x42, 0x31,
   0x18, 0x85, 0x1e, 0x02, 0x80, 0x87, 0x44, 0xc2, 0x87, 0x44, 0xe2, 0x02,
   0x80, 0x00, 0x85, 0x04, 0x40, 0x42, 0x01, 0x03, 0x00, 0x01, 0x89, 0x19,
   0x30, 0x25, 0x01, 0x01, 0x00, 0x81, 0x53, 0xe6, 0xcf, 0x28, 0x01, 0x01,
   0x00, 0x41, 0x24, 0x18, 0x30, 0x90, 0x06, 0x01, 0x00, 0x32, 0x48, 0xe0,
   0x0f, 0x4c, 0x88, 0x00, 0x00, 0x0a, 0x98, 0x00, 0x01, 0x22, 0xb0, 0x00,
   0x00, 0x04, 0x24, 0x03, 0x81, 0x59, 0x40, 0x00, 0x00, 0x08, 0xc2, 0x1c,
   0x71, 0x84, 0x20, 0x00, 0x00, 0x10, 0x81, 0xe1, 0x0f, 0x07, 0x11, 0x00,
   0x00, 0x90, 0x40, 0x0e, 0xf0, 0x04, 0x11, 0x00, 0x00, 0x60, 0x40, 0xf8,
   0x1f, 0x08, 0x0e, 0x00, 0x00, 0x40, 0x20, 0x08, 0x11, 0x08, 0x02, 0x00,
   0x00, 0x80, 0x11, 0x08, 0x21, 0x10, 0x01, 0x00, 0x00, 0x00, 0x12, 0x08,
   0x21, 0xe0, 0x04, 0x1e, 0x00, 0x00, 0x0c, 0x04, 0x21, 0x20, 0x0e, 0x33,
   0x00, 0x00, 0x18, 0x04, 0x21, 0x18, 0x0a, 0x30, 0x00, 0x00, 0xe0, 0x04,
   0x41, 0x06, 0x19, 0x30, 0x00, 0x00, 0x00, 0x07, 0xc1, 0x01, 0x19, 0x18,
   0x00, 0x00, 0x00, 0xf8, 0x7f, 0x80, 0x30, 0x0c, 0x00, 0x00, 0x00, 0x00,
   0x00, 0x80, 0x3f, 0x06, 0x00, 0x00, 0x00, 0x00, 0x00, 0x80, 0x30, 0x23,
   0x00, 0x00, 0x00, 0x00, 0x00, 0x80, 0x30, 0x3f, 0x00, 0x00, 0x00, 0x00,
   0x00, 0x00, 0x00, 0x00, 0x00, 0x00, 0x00, 0x00, 0x00, 0x00, 0x00, 0x00,
   0x00, 0x00, 0x00, 0x00, 0x00, 0x00, 0x00, 0x00};
