#define alpha_width 64
#define alpha_height 64
static unsigned char alpha_bits[] = {
   0xff, 0xff, 0xff, 0xff, 0xff, 0xff, 0xff, 0xff, 0xff, 0xff, 0xff, 0xff,
   0xff, 0xff, 0xff, 0xff, 0x03, 0x00, 0x00, 0x00, 0x00, 0x00, 0x00, 0xc0,
   0x03, 0x00, 0x00, 0x00, 0x00, 0x00, 0x00, 0xc0, 0x0b, 0x08, 0x08, 0xf8,
   0xff, 0xff, 0xff, 0xc3, 0x0b, 0x08, 0x08, 0xf8, 0xff, 0xff, 0xff, 0xc3,
   0x13, 0x14, 0x04, 0x18, 0x00, 0x00, 0x00, 0xc3, 0x13, 0x14, 0x04, 0x18,
   0x00, 0x00, 0x00, 0xc3, 0x23, 0x22, 0x02, 0x18, 0x00, 0x00, 0x00, 0xc3,
   0x23, 0x22, 0x02, 0x18, 0xff, 0xff, 0x1f, 0xc3, 0x43, 0x41, 0x01, 0x18,
   0xff, 0xff, 0x1f, 0xc3, 0x43, 0x41, 0x01, 0x18, 0xff, 0xff, 0x1f, 0xc3,
   0x83, 0x80, 0x00, 0x18, 0xff, 0xff, 0x1f, 0xc3, 0x83, 0x80, 0x00, 0x18,
   0x00, 0x00, 0x00, 0xc3, 0x03, 0x00, 0x00, 0x18, 0xff, 0xff, 0x1f, 0xc3,
   0x03, 0x00, 0x00, 0x18, 0x01, 0x00, 0x10, 0xc3, 0x03, 0xf8, 0x03, 0x18,
   0x01, 0x00, 0x10, 0xc3, 0x03, 0x40, 0x00, 0x18, 0x01, 0x00, 0x10, 0xc3,
   0x03, 0x40, 0x00, 0x18, 0x01, 0x00, 0x10, 0xc3, 0x03, 0x40, 0x00, 0x18,
   0x01, 0x00, 0x10, 0xc3, 0x03, 0x40, 0x00, 0x18, 0xff, 0xff, 0x1f, 0xc3,
   0x03, 0x40, 0x00, 0x18, 0x01, 0x00, 0x10, 0xc3, 0x03, 0x40, 0x00, 0x18,
   0x01, 0x00, 0x10, 0xc3, 0x03, 0x40, 0x00, 0x18, 0x01, 0x00, 0x10, 0xc3,
   0x03, 0x40, 0x00, 0x18, 0x01, 0x00, 0x10, 0xc3, 0x03, 0x40, 0x00, 0x18,
   0x01, 0x00, 0x10, 0xc3, 0x03, 0xf8, 0x03, 0x18, 0xff, 0xff, 0x1f, 0xc3,
   0x03, 0x00, 0x00, 0x18, 0x01, 0x00, 0x10, 0xc3, 0x03, 0x00, 0x00, 0x18,
   0x01, 0x00, 0x10, 0xc3, 0x03, 0x00, 0x00, 0x18, 0x01, 0x00, 0x10, 0xc3,
   0x03, 0x00, 0x81, 0x18, 0x01, 0x00, 0x10, 0xc3, 0x03, 0x00, 0x83, 0x18,
   0x01, 0x00, 0x10, 0xc3, 0x03, 0x00, 0x83, 0x18, 0xff, 0xff, 0x1f, 0xc3,
   0x03, 0x00, 0x85, 0x18, 0x00, 0x00, 0x00, 0xc3, 0x03, 0x00, 0x89, 0x18,
   0x00, 0x00, 0x00, 0xc3, 0x03, 0x00, 0x89, 0x18, 0x03, 0x00, 0x00, 0xc3,
   0x03, 0x00, 0x91, 0x98, 0x04, 0x00, 0x00, 0xc3, 0x03, 0x00, 0xa1, 0x98,
   0x17, 0x00, 0x00, 0xc3, 0x03, 0x00, 0xc1, 0x98, 0x14, 0x00, 0x00, 0xc3,
   0x03, 0x00, 0xc1, 0x98, 0x14, 0x0e, 0x00, 0xc3, 0x03, 0x00, 0x81, 0x18,
   0x10, 0x12, 0x00, 0xc3, 0x03, 0x00, 0x00, 0x18, 0xf0, 0x4e, 0x02, 0xc3,
   0x03, 0x00, 0x00, 0x18, 0x00, 0x42, 0x02, 0xc3, 0x03, 0x00, 0x00, 0x18,
   0x00, 0xc2, 0x33, 0xc3, 0x03, 0x00, 0x00, 0x18, 0x00, 0x40, 0x4a, 0xc3,
   0x83, 0x07, 0x0f, 0x18, 0x00, 0x40, 0x7a, 0xc3, 0x43, 0x88, 0x10, 0x18,
   0x00, 0x00, 0x48, 0xc3, 0x03, 0x08, 0x10, 0x18, 0x00, 0x00, 0x48, 0xc3,
   0x03, 0x08, 0x10, 0x18, 0x00, 0x00, 0x00, 0xc3, 0x03, 0x08, 0x08, 0x18,
   0x00, 0x00, 0x00, 0xc3, 0x03, 0x06, 0x04, 0x18, 0xff, 0xff, 0x1f, 0xc3,
   0x03, 0x08, 0x02, 0x18, 0x00, 0x00, 0x00, 0xc3, 0x03, 0x08, 0x01, 0x18,
   0xff, 0xff, 0x1f, 0xc3, 0x03, 0x88, 0x00, 0x18, 0x00, 0x00, 0x00, 0xc3,
   0x43, 0x88, 0x00, 0x18, 0xff, 0xff, 0x1f, 0xc3, 0x83, 0x87, 0x1f, 0x18,
   0x00, 0x00, 0x00, 0xc3, 0x03, 0x00, 0x00, 0x18, 0x00, 0x00, 0x00, 0xc3,
   0x03, 0x00, 0x00, 0x18, 0x00, 0x00, 0x00, 0xc3, 0x03, 0x00, 0x00, 0xf8,
   0xff, 0xff, 0xff, 0xc3, 0x03, 0x00, 0x00, 0xf8, 0xff, 0xff, 0xff, 0xc3,
   0x03, 0x00, 0x00, 0x00, 0x00, 0x00, 0x00, 0xc0, 0x03, 0x00, 0x00, 0x00,
   0x00, 0x00, 0x00, 0xc0, 0xff, 0xff, 0xff, 0xff, 0xff, 0xff, 0xff, 0xff,
   0xff, 0xff, 0xff, 0xff, 0xff, 0xff, 0xff, 0xff};
