#define cm5_width 64
#define cm5_height 64
static char cm5_bits[] = {
   0x00, 0x00, 0x00, 0x00, 0x00, 0x00, 0x00, 0x00, 0x00, 0x00, 0x00, 0x00,
   0x00, 0x00, 0x00, 0x00, 0xfe, 0x19, 0x98, 0x1f, 0x00, 0x00, 0x00, 0x00,
   0xff, 0x39, 0x9c, 0x1f, 0x00, 0x00, 0x00, 0x00, 0x07, 0x58, 0x9a, 0x01,
   0x00, 0x00, 0x00, 0x00, 0x03, 0xd8, 0x9b, 0x01, 0x00, 0x00, 0xf0, 0x7f,
   0x03, 0x98, 0x99, 0x01, 0x00, 0x00, 0x0e, 0x70, 0x03, 0x98, 0x99, 0x1f,
   0x00, 0x80, 0x01, 0x4e, 0x03, 0x18, 0x18, 0x1f, 0x00, 0x70, 0xc0, 0x41,
   0x03, 0x18, 0x18, 0x30, 0x00, 0x0c, 0x38, 0x40, 0x03, 0x18, 0x18, 0x30,
   0x80, 0x03, 0x06, 0x40, 0x07, 0x18, 0x18, 0x30, 0x60, 0xc0, 0xff, 0x41,
   0xff, 0x19, 0x98, 0x1f, 0x1c, 0x38, 0x80, 0x41, 0xfe, 0x19, 0x98, 0x8f,
   0x03, 0x07, 0x70, 0x41, 0x00, 0x00, 0x00, 0xe0, 0xc0, 0x00, 0x0c, 0x41,
   0x00, 0x00, 0x00, 0x1c, 0x38, 0x80, 0x03, 0x41, 0x00, 0x00, 0x00, 0xfc,
   0x07, 0x70, 0x00, 0x41, 0x00, 0x00, 0x00, 0xc4, 0x00, 0xfe, 0x07, 0x41,
   0x00, 0x00, 0x00, 0x3c, 0xc0, 0xc1, 0x05, 0x41, 0x00, 0x00, 0x00, 0x07,
   0x3c, 0x30, 0x04, 0x41, 0x00, 0x00, 0x80, 0xff, 0x03, 0x0e, 0x04, 0x41,
   0x00, 0x00, 0x80, 0x70, 0xc0, 0x01, 0x04, 0x41, 0x00, 0x00, 0x80, 0x0e,
   0x30, 0x00, 0x04, 0x41, 0x00, 0x00, 0x80, 0x01, 0x0e, 0x00, 0x04, 0x41,
   0x00, 0x00, 0xc0, 0xff, 0x01, 0x00, 0x04, 0x41, 0x00, 0x00, 0x40, 0x40,
   0x00, 0x00, 0x04, 0x41, 0x00, 0x00, 0x40, 0x40, 0x00, 0x00, 0x04, 0x41,
   0x00, 0x00, 0x40, 0x40, 0x00, 0x00, 0x04, 0x41, 0x00, 0x00, 0x40, 0x4a,
   0x00, 0x00, 0x04, 0x41, 0x00, 0x00, 0x40, 0x50, 0x00, 0x00, 0x04, 0x41,
   0x00, 0x00, 0x40, 0x42, 0x00, 0x00, 0x04, 0x41, 0x00, 0x00, 0x40, 0x50,
   0x00, 0x00, 0x04, 0x41, 0x00, 0x00, 0x40, 0x42, 0x00, 0x00, 0x04, 0x41,
   0x00, 0x00, 0x40, 0x41, 0x00, 0x00, 0x04, 0x41, 0x00, 0x00, 0x40, 0x54,
   0x00, 0x00, 0x04, 0x41, 0x00, 0x00, 0x40, 0x44, 0x00, 0x00, 0x04, 0x41,
   0x00, 0x00, 0x40, 0x45, 0x00, 0x00, 0x04, 0x41, 0x00, 0x00, 0x40, 0x40,
   0x00, 0x00, 0x04, 0x41, 0x00, 0x00, 0x40, 0x44, 0x00, 0x00, 0x04, 0x41,
   0x00, 0x00, 0x40, 0x50, 0x00, 0x00, 0x04, 0x41, 0x00, 0x00, 0x40, 0x44,
   0x00, 0x00, 0x04, 0x41, 0x00, 0x00, 0x40, 0x49, 0x00, 0x00, 0x04, 0x41,
   0x00, 0x00, 0x40, 0x41, 0x00, 0x00, 0x04, 0x41, 0x00, 0x00, 0x40, 0x44,
   0x00, 0x00, 0x04, 0x61, 0x00, 0x00, 0x40, 0x50, 0x00, 0x00, 0x04, 0x19,
   0x00, 0x00, 0x40, 0x48, 0x00, 0x00, 0x04, 0x07, 0x00, 0x00, 0x40, 0x42,
   0x00, 0x00, 0x04, 0x01, 0x00, 0x00, 0x40, 0x50, 0x00, 0x00, 0x04, 0x01,
   0x00, 0x00, 0x40, 0x44, 0x00, 0x00, 0x04, 0x01, 0x00, 0x00, 0x40, 0x44,
   0x00, 0x00, 0x04, 0x01, 0x00, 0x00, 0x40, 0x4a, 0x00, 0x00, 0x84, 0x01,
   0x00, 0x00, 0x40, 0x40, 0x00, 0x00, 0x64, 0x00, 0x00, 0x00, 0x40, 0x58,
   0x00, 0x00, 0x1c, 0x00, 0x00, 0x00, 0x40, 0x44, 0x00, 0x00, 0x04, 0x00,
   0x00, 0x00, 0x40, 0x41, 0x00, 0x00, 0x04, 0x00, 0x00, 0x00, 0x40, 0x58,
   0x00, 0x00, 0x04, 0x00, 0x00, 0x00, 0x40, 0x42, 0x00, 0x00, 0x07, 0x00,
   0x00, 0x00, 0x40, 0x48, 0x00, 0xe0, 0x00, 0x00, 0x00, 0x00, 0x40, 0x40,
   0x00, 0x1c, 0x00, 0x00, 0x00, 0x00, 0x40, 0x52, 0x80, 0x03, 0x00, 0x00,
   0x00, 0x00, 0x40, 0x40, 0x70, 0x00, 0x00, 0x00, 0x00, 0x00, 0x40, 0x44,
   0x0e, 0x00, 0x00, 0x00, 0x00, 0x00, 0x40, 0xc0, 0x01, 0x00, 0x00, 0x00,
   0x00, 0x00, 0xc0, 0x7f, 0x00, 0x00, 0x00, 0x00};
