#define convex_width 64
#define convex_height 64
static char convex_bits[] = {
   0x00, 0xfe, 0xff, 0xff, 0xff, 0xff, 0xff, 0x3f, 0x00, 0x01, 0x00, 0x00,
   0x00, 0x00, 0x00, 0x50, 0x80, 0x00, 0x00, 0x00, 0x00, 0x00, 0x00, 0x48,
   0xe0, 0xff, 0xff, 0xff, 0xff, 0xff, 0xff, 0x4f, 0x20, 0x00, 0x00, 0x00,
   0x00, 0x00, 0x00, 0x48, 0x20, 0x00, 0x00, 0x00, 0x00, 0x00, 0x00, 0x48,
   0x20, 0x00, 0x00, 0x00, 0x00, 0x00, 0x00, 0x48, 0x20, 0xff, 0xff, 0xff,
   0xff, 0xff, 0xff, 0x49, 0x20, 0x03, 0x00, 0x00, 0x00, 0x00, 0x80, 0x49,
   0x20, 0x01, 0x00, 0x00, 0x00, 0x00, 0x00, 0x49, 0x20, 0x01, 0x00, 0x00,
   0x00, 0x00, 0x00, 0x49, 0x20, 0x01, 0x00, 0x00, 0x00, 0x00, 0x00, 0x49,
   0x20, 0x01, 0x00, 0x00, 0x00, 0x00, 0x00, 0x49, 0x20, 0x01, 0x00, 0x00,
   0x00, 0x00, 0x00, 0x49, 0x20, 0x01, 0x00, 0x00, 0x00, 0x00, 0x00, 0x49,
   0x20, 0x01, 0x00, 0x00, 0x00, 0x00, 0x00, 0x49, 0x20, 0x01, 0x00, 0x00,
   0x00, 0x00, 0x00, 0x49, 0x20, 0x01, 0x00, 0x00, 0x00, 0x00, 0x00, 0x49,
   0x20, 0x01, 0x00, 0x00, 0x00, 0x00, 0x00, 0x49, 0x20, 0xe1, 0xff, 0x00,
   0x00, 0x00, 0x00, 0x49, 0x20, 0xf1, 0xdf, 0x01, 0x00, 0x00, 0x00, 0x49,
   0x20, 0x31, 0x24, 0x03, 0x00, 0x00, 0x00, 0x49, 0x20, 0xf9, 0xe7, 0x73,
   0x66, 0xa5, 0x57, 0x49, 0x20, 0x19, 0x03, 0x10, 0x69, 0xa5, 0x50, 0x49,
   0x20, 0x19, 0x03, 0x10, 0x69, 0xa5, 0x70, 0x49, 0x20, 0xf9, 0x03, 0x10,
   0x69, 0xa5, 0x23, 0x49, 0x20, 0x19, 0x03, 0x10, 0xa9, 0xa5, 0x70, 0x49,
   0x20, 0x19, 0x03, 0x10, 0xa9, 0x99, 0x50, 0x49, 0x20, 0xf9, 0xe7, 0x73,
   0xa6, 0x99, 0x57, 0x49, 0x20, 0x31, 0x24, 0x03, 0x00, 0x00, 0x00, 0x49,
   0x20, 0xf1, 0xdf, 0x01, 0x00, 0x00, 0x00, 0x49, 0x20, 0xe1, 0xff, 0x00,
   0x00, 0x00, 0x00, 0x49, 0x20, 0x01, 0x00, 0x00, 0x00, 0x00, 0x00, 0x49,
   0x20, 0x01, 0x00, 0x00, 0x00, 0x00, 0x00, 0x49, 0x20, 0x01, 0x00, 0x00,
   0x00, 0x00, 0x00, 0x49, 0x20, 0x01, 0x00, 0x00, 0x00, 0x00, 0x00, 0x49,
   0x20, 0x01, 0x00, 0x00, 0x00, 0x00, 0x00, 0x49, 0x20, 0x01, 0x00, 0x00,
   0x00, 0x00, 0x00, 0x49, 0x20, 0x01, 0x00, 0x00, 0x00, 0x00, 0x00, 0x49,
   0x20, 0x03, 0x00, 0x00, 0x00, 0x00, 0x80, 0x49, 0x20, 0xff, 0xff, 0xff,
   0xff, 0xff, 0xff, 0x49, 0x20, 0x00, 0x00, 0x00, 0x00, 0x00, 0x00, 0x48,
   0x20, 0x00, 0x00, 0x00, 0x00, 0x00, 0x00, 0x28, 0x20, 0x00, 0x00, 0x00,
   0x00, 0x00, 0x00, 0x18, 0xe0, 0xff, 0xff, 0xff, 0xff, 0xff, 0xff, 0x0f,
   0x00, 0x00, 0x10, 0x00, 0x00, 0x10, 0x00, 0x00, 0x00, 0x00, 0x20, 0x00,
   0x00, 0x08, 0x00, 0x00, 0xf0, 0xff, 0x5f, 0x00, 0x00, 0xf4, 0xff, 0xff,
   0x08, 0x00, 0x80, 0xff, 0xff, 0x03, 0x00, 0x00, 0x04, 0x00, 0x00, 0x00,
   0x00, 0x00, 0x00, 0x80, 0xfe, 0xff, 0xff, 0xff, 0xff, 0xff, 0xff, 0x7f,
   0x02, 0x00, 0x00, 0x00, 0x00, 0x00, 0x00, 0x40, 0x22, 0x00, 0xcc, 0xcc,
   0xcc, 0xcc, 0xcc, 0x4c, 0x52, 0xfe, 0xcc, 0xcc, 0xcc, 0xcc, 0xcc, 0x4c,
   0x8a, 0xfe, 0x00, 0x00, 0x00, 0x00, 0x00, 0x40, 0x52, 0x00, 0x32, 0x33,
   0x33, 0x33, 0x33, 0x73, 0x22, 0x00, 0x33, 0x33, 0x33, 0x33, 0x33, 0x73,
   0x02, 0x00, 0x00, 0x00, 0x00, 0x00, 0x00, 0x40, 0xce, 0xcc, 0xcc, 0xcc,
   0xcc, 0xcc, 0xcc, 0x4c, 0xce, 0xcc, 0xcc, 0xcc, 0xcc, 0xcc, 0xcc, 0x4c,
   0x02, 0x00, 0x00, 0x00, 0x00, 0x00, 0x00, 0xc0, 0xfe, 0xff, 0xff, 0xff,
   0xff, 0xff, 0xff, 0x7f, 0x00, 0x00, 0x00, 0x00, 0x00, 0x00, 0x00, 0x00,
   0x00, 0x00, 0x00, 0x00, 0x00, 0x00, 0x00, 0x00};

