#define convex_width 64
#define convex_height 64
static char convex_bits[] = {
   0x00, 0x00, 0x00, 0x00, 0x00, 0x00, 0x00, 0x00, 0x00, 0x00, 0x00, 0x00,
   0x00, 0x00, 0x00, 0x00, 0x00, 0x00, 0xf8, 0x03, 0xf0, 0x03, 0x00, 0x00,
   0x00, 0x00, 0xf8, 0x0f, 0xfc, 0x03, 0x00, 0x00, 0x00, 0x00, 0xf8, 0x1f,
   0xfe, 0x03, 0x00, 0x00, 0x00, 0x00, 0xf8, 0xff, 0xff, 0x03, 0x00, 0x00,
   0x00, 0x00, 0xf8, 0x3f, 0xff, 0x03, 0x00, 0x00, 0x00, 0x00, 0xf8, 0x3f,
   0x0f, 0x03, 0x00, 0x00, 0x00, 0x00, 0xf8, 0x3f, 0x0f, 0x03, 0x00, 0x00,
   0x00, 0x00, 0xf8, 0x3f, 0xff, 0x03, 0x00, 0x00, 0x00, 0x00, 0xf8, 0x3f,
   0xff, 0x03, 0x00, 0x00, 0x00, 0x00, 0xf8, 0x3f, 0xff, 0x03, 0x00, 0x00,
   0x00, 0x00, 0xf8, 0x3f, 0xff, 0x03, 0x00, 0x00, 0x00, 0x00, 0xf8, 0x3f,
   0xff, 0x03, 0x00, 0x00, 0x00, 0x00, 0xf8, 0x3f, 0xff, 0x03, 0x00, 0x00,
   0x00, 0x00, 0xf8, 0x3f, 0xff, 0x03, 0x00, 0x00, 0x00, 0x00, 0xf8, 0x3f,
   0xff, 0x03, 0x00, 0x00, 0x00, 0x00, 0xf8, 0x3f, 0xff, 0x03, 0x00, 0x00,
   0x00, 0x00, 0xf8, 0x3f, 0xff, 0x03, 0x00, 0x00, 0x00, 0x00, 0xf8, 0x3f,
   0xff, 0x03, 0x00, 0x00, 0x00, 0x00, 0xf8, 0x3f, 0xff, 0x03, 0x00, 0x00,
   0x00, 0x00, 0xf8, 0x3f, 0xff, 0x03, 0x00, 0x00, 0x00, 0x00, 0xf8, 0x3f,
   0xff, 0x03, 0x00, 0x00, 0x00, 0x00, 0xf8, 0x3f, 0xff, 0x03, 0x00, 0x00,
   0x00, 0x00, 0xf8, 0x3f, 0xff, 0x03, 0x00, 0x00, 0x00, 0x00, 0xf8, 0x3f,
   0xff, 0x03, 0x00, 0x00, 0x00, 0x00, 0xf8, 0x3f, 0xff, 0x03, 0x00, 0x00,
   0x00, 0x00, 0xf8, 0x3f, 0xff, 0x03, 0x00, 0x00, 0x00, 0x00, 0xf8, 0x3f,
   0xff, 0x03, 0x00, 0x00, 0x00, 0x00, 0xf8, 0x3f, 0xff, 0x03, 0x00, 0x00,
   0x00, 0x00, 0xf8, 0x3f, 0xff, 0x03, 0x00, 0x00, 0x00, 0x00, 0xf8, 0x3f,
   0xff, 0x03, 0x00, 0x00, 0x00, 0x00, 0xf8, 0x3f, 0xff, 0x03, 0x00, 0x00,
   0x00, 0x00, 0xf8, 0x3f, 0xff, 0x03, 0x00, 0x00, 0x00, 0x00, 0xf8, 0x3f,
   0xff, 0x03, 0x00, 0x00, 0x00, 0x00, 0xf8, 0x3f, 0xff, 0x03, 0x00, 0x00,
   0x00, 0x00, 0xf8, 0x3f, 0xff, 0x03, 0x00, 0x00, 0x00, 0x00, 0xf8, 0x3f,
   0xff, 0x03, 0x00, 0x00, 0x00, 0x00, 0xf8, 0x3f, 0xff, 0x03, 0x00, 0x00,
   0x00, 0x00, 0xf8, 0x3f, 0xff, 0x03, 0x00, 0x00, 0x00, 0x00, 0xf8, 0x3f,
   0xff, 0x03, 0x00, 0x00, 0x00, 0x00, 0xf8, 0x3f, 0xff, 0x03, 0x00, 0x00,
   0x00, 0x00, 0xf8, 0xff, 0xff, 0x03, 0x00, 0x00, 0x00, 0x00, 0xf8, 0xff,
   0xff, 0x03, 0x00, 0x00, 0x00, 0x00, 0xf8, 0xff, 0xff, 0x03, 0x00, 0x00,
   0x00, 0x00, 0x00, 0x00, 0x00, 0x00, 0x00, 0x00, 0x00, 0x00, 0x00, 0x00,
   0x00, 0x00, 0x00, 0x00, 0x00, 0x00, 0x00, 0x00, 0x00, 0x00, 0x00, 0x00,
   0x00, 0x3e, 0x03, 0x33, 0x60, 0x03, 0x06, 0x00, 0x00, 0x3f, 0x07, 0x33,
   0x60, 0x03, 0x06, 0x00, 0x00, 0x03, 0x0f, 0x63, 0x30, 0x07, 0x07, 0x00,
   0x00, 0x03, 0x0b, 0x63, 0x30, 0x8e, 0x03, 0x00, 0x00, 0x03, 0x1b, 0x63,
   0x30, 0xfc, 0x01, 0x00, 0x00, 0x03, 0x13, 0xc3, 0x18, 0xf8, 0x00, 0x00,
   0x00, 0x03, 0x33, 0xc3, 0x18, 0x70, 0x00, 0x00, 0x00, 0x03, 0x63, 0xc3,
   0x1d, 0xf8, 0x00, 0x00, 0x00, 0x03, 0x43, 0xc3, 0x1d, 0xfc, 0x01, 0x00,
   0x00, 0x03, 0xc3, 0x83, 0x0d, 0x8e, 0x03, 0x00, 0x00, 0x03, 0x83, 0x83,
   0x0f, 0x07, 0x07, 0x00, 0x00, 0x3f, 0x83, 0x03, 0x87, 0x03, 0x0e, 0x00,
   0x00, 0x3e, 0x03, 0x03, 0x82, 0x01, 0x0c, 0x00, 0x00, 0x00, 0x00, 0x00,
   0x00, 0x00, 0x00, 0x00, 0x00, 0x00, 0x00, 0x00, 0x00, 0x00, 0x00, 0x00,
   0x00, 0x00, 0x00, 0x00, 0x00, 0x00, 0x00, 0x00};
