#define cspp_width 64
#define cspp_height 64
static unsigned char cspp_bits[] = {
   0x00, 0x00, 0x00, 0x00, 0x00, 0x00, 0x00, 0x00, 0x00, 0x00, 0x00, 0x00,
   0x00, 0x00, 0x00, 0x00, 0x00, 0x00, 0xf8, 0x03, 0xf0, 0x03, 0x00, 0x00,
   0x00, 0x00, 0xf8, 0x0f, 0xfc, 0x03, 0x00, 0x00, 0x00, 0x00, 0xf8, 0x1f,
   0xfe, 0x03, 0x00, 0x00, 0x00, 0x00, 0xf8, 0xff, 0xff, 0x03, 0x00, 0x00,
   0x00, 0x00, 0xf8, 0x3f, 0xff, 0x03, 0x00, 0x00, 0x00, 0x00, 0xf8, 0x3f,
   0x0f, 0x03, 0x00, 0x00, 0x00, 0x00, 0xf8, 0x3f, 0x0f, 0x03, 0x00, 0x00,
   0x00, 0x00, 0xf8, 0x3f, 0xff, 0x03, 0x00, 0x00, 0x00, 0x00, 0xf8, 0x3f,
   0xff, 0x03, 0x00, 0x00, 0x00, 0x00, 0xf8, 0x3f, 0xff, 0x03, 0x00, 0x00,
   0x00, 0x00, 0xf8, 0x3f, 0xff, 0x03, 0x00, 0x00, 0x00, 0x00, 0xf8, 0x3f,
   0xff, 0x03, 0x00, 0x00, 0x00, 0x00, 0xf8, 0x3f, 0xff, 0x03, 0x00, 0x00,
   0x00, 0x00, 0xf8, 0x3f, 0xff, 0x03, 0x00, 0x00, 0x00, 0x00, 0xf8, 0x3f,
   0xff, 0x03, 0x00, 0x00, 0x00, 0x00, 0xf8, 0x3f, 0xff, 0x03, 0x00, 0x00,
   0x00, 0x00, 0xf8, 0x3f, 0xff, 0x03, 0x00, 0x00, 0x00, 0x00, 0xf8, 0x3f,
   0xff, 0x03, 0x00, 0x00, 0x00, 0x00, 0xf8, 0x3f, 0xff, 0x03, 0x00, 0x00,
   0x00, 0x00, 0xf8, 0x3f, 0xff, 0x03, 0x00, 0x00, 0x00, 0x00, 0xf8, 0x3f,
   0xff, 0x03, 0x00, 0x00, 0x00, 0x00, 0xf8, 0x3f, 0xff, 0x03, 0x00, 0x00,
   0x00, 0x00, 0xf8, 0x3f, 0xff, 0x03, 0x00, 0x00, 0x00, 0x00, 0xf8, 0x3f,
   0xff, 0x03, 0x00, 0x00, 0x00, 0x00, 0xf8, 0x3f, 0xff, 0x03, 0x00, 0x00,
   0x00, 0x00, 0xf8, 0x3f, 0xff, 0x03, 0x00, 0x00, 0x00, 0x00, 0xf8, 0x3f,
   0xff, 0x03, 0x00, 0x00, 0x00, 0x00, 0xf8, 0x3f, 0xff, 0x03, 0x00, 0x00,
   0x00, 0x00, 0xf8, 0x3f, 0xff, 0x03, 0x00, 0x00, 0x00, 0x00, 0xf8, 0x3f,
   0xff, 0x03, 0x00, 0x00, 0x00, 0x00, 0xf8, 0x3f, 0xff, 0x03, 0x00, 0x00,
   0x00, 0x00, 0xf8, 0x3f, 0xff, 0x03, 0x00, 0x00, 0x00, 0x00, 0xf8, 0x3f,
   0xff, 0x03, 0x00, 0x00, 0x00, 0x00, 0xf8, 0x3f, 0xff, 0x03, 0x00, 0x00,
   0x00, 0x00, 0xf8, 0x3f, 0xff, 0x03, 0x00, 0x00, 0x00, 0x00, 0xf8, 0x3f,
   0xff, 0x03, 0x00, 0x00, 0x00, 0x00, 0xf8, 0x3f, 0xff, 0x03, 0x00, 0x00,
   0x00, 0x00, 0xf8, 0x3f, 0xff, 0x03, 0x00, 0x00, 0x00, 0x00, 0xf8, 0x3f,
   0xff, 0x03, 0x00, 0x00, 0x00, 0x00, 0xf8, 0x3f, 0xff, 0x03, 0x00, 0x00,
   0x00, 0x00, 0xf8, 0xff, 0xff, 0x03, 0x00, 0x00, 0x00, 0x00, 0xf8, 0xff,
   0xff, 0x03, 0x00, 0x00, 0x00, 0x00, 0xf8, 0xff, 0xff, 0x03, 0x00, 0x00,
   0x00, 0x00, 0x00, 0x00, 0x00, 0x00, 0x00, 0x00, 0x00, 0x00, 0x00, 0x00,
   0x00, 0x00, 0x00, 0x00, 0x00, 0x00, 0x00, 0x00, 0x00, 0x00, 0x00, 0x00,
   0x00, 0xf8, 0x83, 0x1f, 0xfe, 0xe0, 0x0f, 0x00, 0x00, 0xfc, 0xc3, 0x1f,
   0xfe, 0xe1, 0x1f, 0x00, 0x00, 0x0c, 0xc0, 0x00, 0x86, 0x61, 0x18, 0x00,
   0x00, 0x0c, 0xc0, 0x00, 0x86, 0x61, 0x18, 0x00, 0x00, 0x0c, 0xc0, 0x00,
   0x86, 0x61, 0x18, 0x00, 0x00, 0x0c, 0xc0, 0x00, 0xfe, 0xe1, 0x1f, 0x00,
   0x00, 0x0c, 0xc0, 0x0f, 0xfe, 0xe0, 0x0f, 0x00, 0x00, 0x0c, 0x80, 0x1f,
   0x06, 0x60, 0x00, 0x00, 0x00, 0x0c, 0x00, 0x18, 0x06, 0x60, 0x00, 0x00,
   0x00, 0x0c, 0x00, 0x18, 0x06, 0x60, 0x00, 0x00, 0x00, 0x0c, 0x00, 0x18,
   0x06, 0x60, 0x00, 0x00, 0x00, 0xfc, 0xc3, 0x1f, 0x06, 0x60, 0x00, 0x00,
   0x00, 0xf8, 0xc3, 0x0f, 0x06, 0x60, 0x00, 0x00, 0x00, 0x00, 0x00, 0x00,
   0x00, 0x00, 0x00, 0x00, 0x00, 0x00, 0x00, 0x00, 0x00, 0x00, 0x00, 0x00,
   0x00, 0x00, 0x00, 0x00, 0x00, 0x00, 0x00, 0x00};
