#define dummy_arch_width 64
#define dummy_arch_height 64
static char dummy_arch_bits[] = {
   0x00, 0xf8, 0xff, 0xff, 0xff, 0xff, 0xff, 0x07, 0x00, 0x04, 0x00, 0x00,
   0x00, 0x00, 0x00, 0x0a, 0x00, 0x02, 0x00, 0x00, 0x00, 0x00, 0x00, 0x09,
   0x00, 0xff, 0xff, 0xff, 0xff, 0xff, 0xff, 0x08, 0x80, 0x01, 0x00, 0x00,
   0x00, 0x00, 0x80, 0x09, 0x80, 0x00, 0x00, 0x00, 0x00, 0x00, 0x00, 0x09,
   0x80, 0x00, 0x00, 0x00, 0x00, 0x00, 0x00, 0x09, 0x80, 0xf0, 0xff, 0xff,
   0xff, 0xff, 0x0f, 0x09, 0x80, 0x18, 0x00, 0x00, 0x00, 0x00, 0x18, 0x09,
   0x80, 0x08, 0x00, 0x00, 0x00, 0x00, 0x10, 0x09, 0x80, 0x08, 0x00, 0x00,
   0x00, 0x00, 0x10, 0x09, 0x80, 0x88, 0xff, 0x00, 0x00, 0x00, 0x10, 0x09,
   0x80, 0x88, 0x00, 0x01, 0x00, 0x00, 0x10, 0x09, 0x80, 0x88, 0x7e, 0x01,
   0x00, 0x00, 0x10, 0x09, 0x80, 0x88, 0x42, 0x01, 0x00, 0x00, 0x10, 0x09,
   0x80, 0x88, 0x42, 0x01, 0x00, 0x00, 0x10, 0x09, 0x80, 0x88, 0x7e, 0x39,
   0x1c, 0x00, 0x10, 0x09, 0x80, 0x88, 0x00, 0x29, 0x14, 0x00, 0x10, 0x09,
   0x80, 0x88, 0xfe, 0x28, 0x14, 0x00, 0x10, 0x09, 0x80, 0x88, 0x02, 0x28,
   0x14, 0x00, 0x10, 0x09, 0x80, 0x88, 0x02, 0x28, 0x14, 0x00, 0x10, 0x09,
   0x80, 0x88, 0x02, 0x28, 0x14, 0x00, 0x10, 0x09, 0x80, 0x88, 0x02, 0x48,
   0x12, 0x00, 0x10, 0x09, 0x80, 0x88, 0x02, 0x50, 0x0a, 0x00, 0x10, 0x09,
   0x80, 0x88, 0x02, 0x50, 0xca, 0x01, 0x17, 0x09, 0x80, 0x88, 0x02, 0x50,
   0x4a, 0x82, 0x14, 0x09, 0x80, 0x88, 0x02, 0x90, 0x49, 0x44, 0x14, 0x09,
   0x80, 0x88, 0x02, 0x90, 0x49, 0x29, 0x15, 0x09, 0x80, 0x88, 0x03, 0x20,
   0x44, 0x93, 0x15, 0x09, 0x80, 0x08, 0x00, 0x20, 0x44, 0x45, 0x15, 0x09,
   0x80, 0x08, 0x00, 0x40, 0x42, 0x29, 0x15, 0x09, 0x80, 0x08, 0x00, 0x40,
   0x42, 0x11, 0x15, 0x09, 0x80, 0x08, 0x00, 0x80, 0x41, 0x01, 0x15, 0x09,
   0x80, 0x08, 0x00, 0x80, 0x41, 0x01, 0x15, 0x09, 0x80, 0x08, 0x00, 0x00,
   0x40, 0x01, 0x15, 0x09, 0x80, 0x08, 0x00, 0x00, 0x40, 0x01, 0x15, 0x09,
   0x80, 0x08, 0x00, 0x00, 0xc0, 0x01, 0x17, 0x09, 0x80, 0x08, 0x00, 0x00,
   0x00, 0x00, 0x10, 0x09, 0x80, 0x08, 0x00, 0x00, 0x00, 0x00, 0x10, 0x09,
   0x80, 0x18, 0x00, 0x00, 0x00, 0x00, 0x18, 0x09, 0x80, 0xf0, 0xff, 0xff,
   0xff, 0xff, 0x0f, 0x09, 0x80, 0x00, 0x00, 0x00, 0x00, 0x00, 0x00, 0x05,
   0x80, 0x00, 0x00, 0x00, 0x00, 0x00, 0x00, 0x03, 0x80, 0x01, 0x00, 0x00,
   0x00, 0x00, 0x80, 0x01, 0x00, 0xff, 0xff, 0xff, 0xff, 0xff, 0xff, 0x00,
   0x00, 0x00, 0x10, 0x00, 0x00, 0x10, 0x00, 0x00, 0x00, 0x00, 0x20, 0x00,
   0x00, 0x08, 0x00, 0x00, 0xf0, 0xff, 0x5f, 0x00, 0x00, 0xf4, 0xff, 0xff,
   0x08, 0x00, 0x80, 0xff, 0xff, 0x03, 0x00, 0x00, 0x04, 0x00, 0x00, 0x00,
   0x00, 0x00, 0x00, 0x80, 0xfe, 0xff, 0xff, 0xff, 0xff, 0xff, 0xff, 0x7f,
   0x02, 0x00, 0x00, 0x00, 0x00, 0x00, 0x00, 0x40, 0xce, 0xcc, 0xcc, 0xcc,
   0xcc, 0xcc, 0xcc, 0x4c, 0xce, 0xcc, 0xcc, 0xcc, 0xcc, 0xcc, 0xcc, 0x4c,
   0x02, 0x00, 0x00, 0x00, 0x00, 0x00, 0x00, 0x40, 0x32, 0x33, 0x33, 0x33,
   0x33, 0x33, 0x33, 0x73, 0x32, 0x33, 0x33, 0x33, 0x33, 0x33, 0x33, 0x73,
   0x02, 0x00, 0x00, 0x00, 0x00, 0x00, 0x00, 0x40, 0xce, 0xcc, 0xcc, 0xcc,
   0xcc, 0xcc, 0xcc, 0x4c, 0xce, 0xcc, 0xcc, 0xcc, 0xcc, 0xcc, 0xcc, 0x4c,
   0x02, 0x00, 0x00, 0x00, 0x00, 0x00, 0x00, 0xc0, 0xfe, 0xff, 0xff, 0xff,
   0xff, 0xff, 0xff, 0x7f, 0x00, 0x00, 0x00, 0x00, 0x00, 0x00, 0x00, 0x00,
   0x00, 0x00, 0x00, 0x00, 0x00, 0x00, 0x00, 0x00};
