#define fastfwd_width 16
#define fastfwd_height 16
static unsigned char fastfwd_bits[] = {
   0x00, 0x00, 0x00, 0x00, 0x00, 0x00, 0x0c, 0x06, 0x1c, 0x0e, 0x3c, 0x1e,
   0x7c, 0x3e, 0xfc, 0x7e, 0x7c, 0x3e, 0x3c, 0x1e, 0x1c, 0x0e, 0x0c, 0x06,
   0x00, 0x00, 0x00, 0x00, 0x00, 0x00, 0x00, 0x00};
