#define hppa_width 64
#define hppa_height 64
static char hppa_bits[] = {
   0x00, 0x00, 0x00, 0x00, 0x00, 0x00, 0x00, 0x00, 0x00, 0x00, 0x00, 0x80,
   0xff, 0xff, 0xff, 0xff, 0x00, 0x00, 0x00, 0xf0, 0xaa, 0xaa, 0xaa, 0xaa,
   0x00, 0x00, 0x00, 0x5f, 0x55, 0x55, 0x55, 0xd5, 0x00, 0x00, 0xc0, 0xaa,
   0xaa, 0xaa, 0xaa, 0x6a, 0x00, 0x00, 0xe0, 0xff, 0xff, 0xff, 0xff, 0xff,
   0x00, 0x00, 0x30, 0x00, 0x00, 0x00, 0x00, 0x60, 0x00, 0x00, 0x10, 0x00,
   0x00, 0x00, 0x00, 0xc0, 0x00, 0x00, 0x10, 0xff, 0xff, 0xff, 0xff, 0x47,
   0x00, 0x00, 0x90, 0x00, 0x00, 0x00, 0x00, 0xc8, 0x00, 0x00, 0x90, 0x00,
   0x00, 0x00, 0x00, 0x48, 0x00, 0x00, 0x90, 0x00, 0x00, 0x00, 0x00, 0xc8,
   0x00, 0x00, 0x90, 0x00, 0x00, 0x00, 0x00, 0x48, 0x00, 0x00, 0x9e, 0x00,
   0x00, 0x00, 0x00, 0xc8, 0x00, 0x80, 0x95, 0x00, 0x00, 0x00, 0x00, 0x48,
   0x00, 0xe0, 0x9a, 0x00, 0x00, 0x00, 0x00, 0xc8, 0x00, 0x50, 0x95, 0x98,
   0xf9, 0xf8, 0x30, 0x48, 0x00, 0xac, 0x9a, 0x98, 0xf9, 0xf9, 0x31, 0xc8,
   0x00, 0x53, 0x9d, 0x98, 0x99, 0x99, 0x79, 0x48, 0x80, 0xaa, 0x92, 0x98,
   0x99, 0x99, 0x49, 0xc8, 0x60, 0x55, 0x9d, 0x98, 0x99, 0x99, 0xcd, 0x48,
   0xb8, 0xaa, 0x93, 0x98, 0x99, 0x99, 0xcd, 0xc8, 0xfc, 0xff, 0x91, 0x98,
   0x99, 0x99, 0xcd, 0x48, 0x04, 0x40, 0x91, 0x98, 0x99, 0x99, 0xcd, 0xc8,
   0x04, 0x40, 0x91, 0xf8, 0xf9, 0xf9, 0xfd, 0x48, 0x04, 0x40, 0x91, 0xf8,
   0xf9, 0xf8, 0xfc, 0xc9, 0x04, 0x40, 0x91, 0x98, 0x19, 0x18, 0x86, 0x49,
   0x04, 0x40, 0x91, 0x98, 0x19, 0x18, 0x86, 0xc9, 0x04, 0x40, 0x91, 0x98,
   0x19, 0x18, 0x86, 0x49, 0x04, 0x40, 0x91, 0x98, 0x19, 0x18, 0x86, 0xc9,
   0x04, 0x40, 0x91, 0x98, 0x19, 0x18, 0x86, 0x49, 0x04, 0x40, 0x91, 0x98,
   0x19, 0x18, 0x86, 0xc9, 0xc4, 0x47, 0x91, 0x98, 0x19, 0x18, 0x86, 0x49,
   0x44, 0x44, 0x91, 0x98, 0x19, 0x18, 0x86, 0xc9, 0x44, 0x44, 0x91, 0x00,
   0x00, 0x00, 0x00, 0x48, 0x44, 0x44, 0x91, 0x00, 0x00, 0x00, 0x00, 0xc8,
   0x44, 0x44, 0x91, 0x00, 0x00, 0x00, 0x00, 0x48, 0x44, 0x44, 0x91, 0x00,
   0x00, 0x00, 0x00, 0xc8, 0x44, 0x44, 0x91, 0x00, 0x00, 0x00, 0x00, 0x48,
   0x44, 0x44, 0x91, 0x00, 0x00, 0x00, 0x00, 0xc8, 0xc4, 0x47, 0x91, 0x00,
   0x00, 0x00, 0x00, 0x48, 0x04, 0x40, 0x91, 0x00, 0x00, 0x00, 0x00, 0xc8,
   0x04, 0x40, 0x91, 0x00, 0x00, 0x00, 0x00, 0x48, 0x44, 0x44, 0x91, 0x00,
   0x00, 0x00, 0x00, 0xc8, 0x44, 0x44, 0x11, 0xff, 0xff, 0xff, 0xff, 0x47,
   0x44, 0x44, 0x91, 0x00, 0x00, 0x00, 0x00, 0xc0, 0x44, 0x44, 0x51, 0x3d,
   0x00, 0x00, 0x00, 0x40, 0x44, 0x44, 0x91, 0x3c, 0x00, 0x00, 0x00, 0xc0,
   0x44, 0x44, 0x31, 0x00, 0x00, 0x00, 0x00, 0x60, 0x44, 0x44, 0xe1, 0xff,
   0xff, 0xff, 0xff, 0xbf, 0x44, 0x44, 0x01, 0xa8, 0xaa, 0xaa, 0xaa, 0xaa,
   0x44, 0x44, 0x01, 0xfc, 0xff, 0xff, 0xff, 0x57, 0x44, 0x44, 0x01, 0x02,
   0x00, 0x00, 0x00, 0x28, 0x44, 0x44, 0x01, 0x72, 0x00, 0x00, 0x60, 0x18,
   0x44, 0x44, 0x01, 0x02, 0x00, 0x00, 0x00, 0x08, 0x44, 0x44, 0x01, 0xfc,
   0xff, 0xff, 0xff, 0x07, 0x44, 0x44, 0x01, 0x0c, 0x00, 0x00, 0x00, 0x00,
   0x44, 0x44, 0x01, 0x02, 0x00, 0x00, 0x00, 0x00, 0x04, 0x40, 0x81, 0x01,
   0x00, 0x00, 0x00, 0x00, 0x04, 0x40, 0x61, 0x00, 0x00, 0x00, 0x00, 0x00,
   0x04, 0x40, 0x11, 0x00, 0x00, 0x00, 0x00, 0x00, 0x04, 0x40, 0x0d, 0x00,
   0x00, 0x00, 0x00, 0x00, 0x04, 0x40, 0x03, 0x00, 0x00, 0x00, 0x00, 0x00,
   0xfc, 0xff, 0x01, 0x00, 0x00, 0x00, 0x00, 0x00};
