#define ipsc2_width 64
#define ipsc2_height 64
static char ipsc2_bits[] = {
   0x00, 0x00, 0x00, 0x00, 0x00, 0x00, 0x00, 0x00, 0x00, 0x00, 0x00, 0x00,
   0x00, 0x00, 0x00, 0x00, 0x00, 0x00, 0x00, 0x00, 0x00, 0x00, 0x00, 0x00,
   0x00, 0x00, 0x00, 0x00, 0x00, 0x00, 0x00, 0x00, 0x00, 0x00, 0x00, 0x00,
   0x00, 0x00, 0x00, 0x00, 0x00, 0x00, 0x00, 0x00, 0x00, 0x00, 0x00, 0x00,
   0x00, 0x00, 0x00, 0x00, 0x00, 0x00, 0x00, 0x00, 0x00, 0x00, 0x00, 0x00,
   0x00, 0x00, 0x00, 0x00, 0x00, 0x00, 0x00, 0x00, 0x00, 0x00, 0x00, 0x00,
   0x00, 0x00, 0x00, 0x00, 0x00, 0x00, 0x00, 0x00, 0x00, 0x00, 0x00, 0x00,
   0x00, 0x00, 0x00, 0x00, 0x00, 0x00, 0x00, 0x00, 0x00, 0x00, 0x00, 0x00,
   0x00, 0x00, 0x00, 0x00, 0x00, 0x00, 0x00, 0x00, 0x00, 0x00, 0x00, 0x00,
   0x00, 0x00, 0x00, 0x00, 0x00, 0x00, 0xe0, 0xff, 0xff, 0xff, 0xff, 0x00,
   0x00, 0x00, 0x70, 0x00, 0x00, 0x00, 0xc0, 0x00, 0x00, 0x00, 0xa8, 0x00,
   0x00, 0x00, 0xb0, 0x00, 0x00, 0x00, 0xa6, 0x00, 0x00, 0x00, 0x88, 0x00,
   0x00, 0x00, 0x21, 0x01, 0x00, 0x00, 0x86, 0x00, 0x00, 0xc0, 0x20, 0x01,
   0x00, 0x00, 0x81, 0x00, 0x00, 0x20, 0x20, 0x02, 0x00, 0x80, 0x80, 0x00,
   0x00, 0x18, 0x20, 0x04, 0x00, 0x60, 0x80, 0x00, 0x00, 0x04, 0x20, 0x04,
   0x00, 0x10, 0x80, 0x00, 0x00, 0xfe, 0xff, 0xff, 0xff, 0x0f, 0x80, 0x00,
   0x00, 0x1a, 0x20, 0x10, 0x00, 0x0e, 0x80, 0x00, 0x00, 0xe2, 0x20, 0x10,
   0x00, 0x09, 0x80, 0x00, 0x00, 0x02, 0x23, 0xe0, 0xff, 0x08, 0x80, 0x00,
   0x00, 0x02, 0x3c, 0x38, 0xc0, 0x08, 0x80, 0x00, 0x00, 0x02, 0x60, 0x26,
   0xb0, 0x08, 0x80, 0x00, 0x00, 0x02, 0xa0, 0xff, 0x8f, 0x08, 0x80, 0x00,
   0x00, 0x02, 0x20, 0x21, 0x88, 0x08, 0x80, 0x00, 0x00, 0x02, 0x20, 0x21,
   0x88, 0x08, 0x80, 0x00, 0x00, 0x02, 0x20, 0x21, 0x88, 0x08, 0x80, 0x00,
   0x00, 0x02, 0x20, 0x21, 0x88, 0x08, 0x80, 0x00, 0x00, 0x02, 0x20, 0x21,
   0x88, 0x08, 0x80, 0x00, 0x00, 0x02, 0x20, 0xe1, 0xff, 0x08, 0x80, 0x00,
   0x00, 0x02, 0x20, 0x11, 0x48, 0x0b, 0x80, 0x00, 0x00, 0x02, 0x20, 0x0d,
   0x28, 0x0c, 0x80, 0x00, 0x00, 0x02, 0x20, 0x03, 0x18, 0x38, 0x80, 0x00,
   0x00, 0x02, 0x20, 0xff, 0x0f, 0x48, 0x80, 0x00, 0x00, 0x02, 0xa0, 0x01,
   0x10, 0x88, 0x81, 0x00, 0x00, 0x02, 0x60, 0x01, 0x10, 0x08, 0x86, 0x00,
   0x00, 0x02, 0xa0, 0x00, 0x20, 0x08, 0x98, 0x00, 0x00, 0x02, 0x70, 0x00,
   0x20, 0x08, 0xa0, 0x00, 0x00, 0x02, 0xe8, 0xff, 0xff, 0xff, 0xff, 0x00,
   0x00, 0x02, 0x14, 0x00, 0x40, 0x08, 0x40, 0x00, 0x00, 0x02, 0x0e, 0x00,
   0x80, 0x08, 0x30, 0x00, 0x00, 0x02, 0x03, 0x00, 0x80, 0x08, 0x08, 0x00,
   0x00, 0x82, 0x01, 0x00, 0x00, 0x09, 0x04, 0x00, 0x00, 0xc2, 0x00, 0x00,
   0x00, 0x09, 0x02, 0x00, 0x00, 0x62, 0x00, 0x00, 0x00, 0x0a, 0x01, 0x00,
   0x00, 0x32, 0x00, 0x00, 0x00, 0xca, 0x00, 0x00, 0x00, 0x0a, 0x00, 0x00,
   0x00, 0x2c, 0x00, 0x00, 0x00, 0x06, 0x00, 0x00, 0x00, 0x1c, 0x00, 0x00,
   0x00, 0xfe, 0xff, 0xff, 0xff, 0x0f, 0x00, 0x00, 0x00, 0x00, 0x00, 0x00,
   0x00, 0x00, 0x00, 0x00, 0x00, 0x00, 0x00, 0x00, 0x00, 0x00, 0x00, 0x00,
   0x00, 0x00, 0x00, 0x00, 0x00, 0x00, 0x00, 0x00, 0x00, 0x00, 0x00, 0x00,
   0x00, 0x00, 0x00, 0x00, 0x00, 0x00, 0x00, 0x00, 0x00, 0x00, 0x00, 0x00,
   0x00, 0x00, 0x00, 0x00, 0x00, 0x00, 0x00, 0x00, 0x00, 0x00, 0x00, 0x00,
   0x00, 0x00, 0x00, 0x00, 0x00, 0x00, 0x00, 0x00, 0x00, 0x00, 0x00, 0x00,
   0x00, 0x00, 0x00, 0x00, 0x00, 0x00, 0x00, 0x00};
