#define ksr1_width 64
#define ksr1_height 64
static char ksr1_bits[] = {
   0x00, 0x00, 0x00, 0x00, 0x00, 0x00, 0x00, 0x00, 0x00, 0x00, 0x00, 0x00,
   0x00, 0x00, 0x00, 0x00, 0x00, 0x00, 0x86, 0xf8, 0xfc, 0x30, 0x00, 0x00,
   0x00, 0x00, 0xc6, 0xfc, 0xfc, 0x39, 0x00, 0x00, 0x00, 0x00, 0xe6, 0x0c,
   0x8c, 0x31, 0x00, 0x00, 0x00, 0x00, 0x76, 0x0c, 0x8c, 0x31, 0x00, 0x00,
   0x00, 0x00, 0x3e, 0x0c, 0x8c, 0x31, 0x00, 0x00, 0x00, 0x00, 0x1e, 0x7c,
   0xec, 0x31, 0x00, 0x00, 0x00, 0x00, 0x0e, 0xf8, 0xfc, 0x30, 0x00, 0x00,
   0x00, 0x00, 0x1e, 0xc0, 0x7c, 0x30, 0x00, 0x00, 0x00, 0x00, 0x3e, 0xc0,
   0x6c, 0x30, 0x00, 0x00, 0x00, 0x00, 0x76, 0xc0, 0xcc, 0x30, 0x00, 0x00,
   0x00, 0x00, 0xe6, 0xfc, 0xcc, 0x79, 0x00, 0x00, 0x00, 0x00, 0xc6, 0x7c,
   0x8c, 0x79, 0x00, 0x00, 0x00, 0x00, 0x00, 0x00, 0x00, 0x00, 0x00, 0x00,
   0x00, 0x00, 0x00, 0x00, 0x00, 0x00, 0x00, 0x00, 0x00, 0x04, 0x00, 0x01,
   0x00, 0x00, 0x00, 0x00, 0x00, 0x04, 0x00, 0x01, 0x00, 0x00, 0x00, 0x00,
   0x00, 0xfc, 0xff, 0x03, 0x08, 0x00, 0x00, 0x00, 0x00, 0x0c, 0x00, 0x3e,
   0x08, 0x00, 0x04, 0x00, 0x00, 0x54, 0x00, 0xc0, 0x0f, 0x00, 0x04, 0x00,
   0x00, 0x64, 0x00, 0x00, 0xf8, 0xff, 0x07, 0x00, 0x00, 0xc4, 0x7f, 0x00,
   0x00, 0x00, 0x08, 0x00, 0x00, 0xc4, 0xff, 0x3f, 0x00, 0x00, 0x50, 0x00,
   0x00, 0xcc, 0x3f, 0xe0, 0x0f, 0x00, 0x60, 0x00, 0x00, 0xd4, 0x3f, 0x00,
   0xf8, 0xff, 0x7f, 0x00, 0x00, 0xe4, 0x3f, 0x00, 0x80, 0xff, 0x40, 0x00,
   0x00, 0xc4, 0xff, 0x00, 0x80, 0xff, 0x40, 0x00, 0x00, 0x44, 0xc0, 0x3f,
   0x80, 0xff, 0x40, 0x00, 0x00, 0x4c, 0x00, 0xf0, 0x8f, 0xff, 0x40, 0x00,
   0x00, 0x54, 0x00, 0x10, 0xf8, 0xff, 0x7f, 0x00, 0x00, 0x64, 0x00, 0x10,
   0x88, 0x00, 0x40, 0x00, 0x00, 0xc4, 0xff, 0x1f, 0x98, 0x00, 0x40, 0x00,
   0x00, 0x44, 0x00, 0x10, 0xa8, 0x00, 0x40, 0x00, 0x00, 0x4c, 0x00, 0x10,
   0xc8, 0x00, 0x40, 0x00, 0x00, 0x54, 0x00, 0x10, 0x88, 0xff, 0x7f, 0x00,
   0x00, 0x64, 0x00, 0x10, 0x88, 0x00, 0x40, 0x00, 0x00, 0xc4, 0xff, 0x1f,
   0x98, 0x00, 0x40, 0x00, 0x00, 0x44, 0x00, 0x10, 0xa8, 0x00, 0x40, 0x00,
   0x00, 0x4c, 0x00, 0x10, 0xc8, 0x00, 0x40, 0x00, 0x00, 0x54, 0x00, 0x10,
   0x88, 0xff, 0x7f, 0x00, 0x00, 0x64, 0x00, 0x10, 0x88, 0x00, 0x40, 0x00,
   0x00, 0xc4, 0xff, 0x1f, 0x98, 0x00, 0x40, 0x00, 0x00, 0x44, 0x00, 0x10,
   0xa8, 0x00, 0x40, 0x00, 0x00, 0x4c, 0x00, 0x10, 0xc8, 0x00, 0x40, 0x00,
   0x00, 0x54, 0x00, 0x10, 0x88, 0xff, 0x7f, 0x00, 0x00, 0x64, 0x00, 0x10,
   0x88, 0x00, 0x40, 0x00, 0x00, 0xc4, 0xff, 0x1f, 0x98, 0x00, 0x40, 0x00,
   0x00, 0x44, 0x00, 0x10, 0xa8, 0x00, 0x40, 0x00, 0x00, 0x4c, 0x00, 0x10,
   0xc8, 0x00, 0x40, 0x00, 0x00, 0x54, 0x00, 0x10, 0x88, 0xff, 0x7f, 0x00,
   0x00, 0x64, 0x00, 0x10, 0x88, 0x00, 0x40, 0x00, 0x00, 0xc4, 0xff, 0x1f,
   0x98, 0x00, 0x40, 0x00, 0x00, 0x44, 0x00, 0x11, 0xa8, 0x00, 0x40, 0x00,
   0x00, 0x44, 0x00, 0x11, 0xc8, 0x00, 0x40, 0x00, 0x00, 0x44, 0x00, 0x11,
   0x88, 0xff, 0x7f, 0x00, 0x00, 0x40, 0x00, 0x10, 0x88, 0x00, 0x44, 0x00,
   0x00, 0x40, 0x00, 0x10, 0x88, 0x00, 0x44, 0x00, 0x00, 0x40, 0x00, 0x10,
   0x88, 0x00, 0x44, 0x00, 0x00, 0x40, 0x00, 0x10, 0x80, 0x00, 0x40, 0x00,
   0x00, 0x40, 0x00, 0x10, 0x80, 0x00, 0x40, 0x00, 0x00, 0x00, 0x00, 0x00,
   0x80, 0x00, 0x40, 0x00, 0x00, 0x00, 0x00, 0x00, 0x80, 0x00, 0x40, 0x00,
   0x00, 0x00, 0x00, 0x00, 0x00, 0x00, 0x00, 0x00};
