#define laptop_width 64
#define laptop_height 64
static char laptop_bits[] = {
   0x00, 0x00, 0x00, 0x00, 0x00, 0x00, 0x00, 0x00, 0x00, 0x00, 0x00, 0x00,
   0x00, 0x00, 0x00, 0x00, 0x00, 0x00, 0x00, 0x00, 0x00, 0x00, 0x00, 0x00,
   0x00, 0x00, 0x00, 0x00, 0x00, 0x00, 0x00, 0x00, 0x00, 0x00, 0x00, 0x00,
   0x00, 0x00, 0x00, 0x00, 0x00, 0x00, 0x00, 0x00, 0x00, 0x00, 0x00, 0x00,
   0x00, 0x00, 0x00, 0x00, 0x00, 0x00, 0x00, 0x00, 0x00, 0x00, 0x00, 0x00,
   0x00, 0x00, 0x00, 0x00, 0x00, 0x00, 0x00, 0x00, 0x00, 0x00, 0x00, 0x00,
   0x00, 0x00, 0x00, 0x00, 0x00, 0x00, 0x00, 0x00, 0x00, 0x00, 0x00, 0x00,
   0x00, 0x00, 0x00, 0x00, 0x00, 0x00, 0xf0, 0xff, 0xff, 0xff, 0x1f, 0x00,
   0x00, 0x00, 0x10, 0x00, 0x00, 0x00, 0x10, 0x00, 0x00, 0x00, 0xb0, 0xff,
   0xff, 0x7f, 0x18, 0x00, 0x00, 0x00, 0x90, 0x00, 0x00, 0x40, 0x13, 0x00,
   0x00, 0x00, 0xb0, 0x00, 0x00, 0x40, 0x1b, 0x00, 0x00, 0x00, 0x90, 0x00,
   0x00, 0x40, 0x13, 0x00, 0x00, 0x00, 0xb0, 0x00, 0x00, 0x40, 0x1b, 0x00,
   0x00, 0x00, 0x90, 0x00, 0x00, 0x40, 0x13, 0x00, 0x00, 0x00, 0xb0, 0x00,
   0x00, 0x40, 0x1b, 0x00, 0x00, 0x00, 0x90, 0x00, 0x00, 0x40, 0x13, 0x00,
   0x00, 0x00, 0xb0, 0x00, 0x00, 0x40, 0x18, 0x00, 0x00, 0x00, 0x90, 0x00,
   0x00, 0x40, 0x10, 0x00, 0x00, 0x00, 0xb0, 0x00, 0x00, 0x40, 0x18, 0x00,
   0x00, 0x00, 0x90, 0x00, 0x00, 0x40, 0x13, 0x00, 0x00, 0x00, 0xb0, 0x00,
   0x00, 0x40, 0x1b, 0x00, 0x00, 0x00, 0x90, 0x00, 0x00, 0x40, 0x13, 0x00,
   0x00, 0x00, 0xb0, 0x00, 0x00, 0x40, 0x1b, 0x00, 0x00, 0x00, 0x90, 0x00,
   0x00, 0x40, 0x13, 0x00, 0x00, 0x00, 0xb0, 0x00, 0x00, 0x40, 0x1b, 0x00,
   0x00, 0x00, 0x90, 0xff, 0xff, 0x7f, 0x13, 0x00, 0x00, 0x00, 0x30, 0x00,
   0x00, 0x00, 0x18, 0x00, 0x00, 0x00, 0x50, 0x55, 0x55, 0x55, 0x15, 0x00,
   0x00, 0x00, 0x30, 0x00, 0x00, 0x00, 0x10, 0x00, 0x00, 0x00, 0xf0, 0xff,
   0xff, 0xff, 0x1f, 0x00, 0x00, 0x00, 0x50, 0x55, 0x55, 0x55, 0x15, 0x00,
   0x00, 0x00, 0xac, 0xaa, 0xaa, 0xaa, 0x1c, 0x00, 0x00, 0x00, 0x53, 0x55,
   0x55, 0x55, 0x13, 0x00, 0x00, 0xc0, 0xff, 0xff, 0xff, 0xff, 0x14, 0x00,
   0x00, 0x20, 0x01, 0x04, 0x10, 0xb0, 0x12, 0x00, 0x00, 0x18, 0x44, 0x20,
   0x22, 0x8d, 0x0d, 0x00, 0x00, 0xa6, 0x00, 0x02, 0x80, 0xb2, 0x02, 0x00,
   0x00, 0xff, 0xff, 0xff, 0xff, 0xbd, 0x01, 0x00, 0x00, 0x55, 0x55, 0x55,
   0x55, 0x6d, 0x00, 0x00, 0x00, 0xf9, 0x9f, 0xaa, 0xaa, 0x11, 0x00, 0x00,
   0x00, 0x55, 0x55, 0x55, 0x55, 0x0d, 0x00, 0x00, 0x00, 0xff, 0xff, 0xff,
   0xff, 0x03, 0x00, 0x00, 0x00, 0x00, 0x00, 0x00, 0x00, 0x00, 0x00, 0x00,
   0x00, 0x00, 0x00, 0x00, 0x00, 0x00, 0x00, 0x00, 0x00, 0x00, 0x00, 0x00,
   0x00, 0x00, 0x00, 0x00, 0xe0, 0xf9, 0x19, 0x3f, 0x7c, 0x00, 0x00, 0x00,
   0xf0, 0x99, 0x39, 0x7f, 0x7e, 0x00, 0x00, 0x00, 0x18, 0x98, 0x2d, 0x63,
   0x06, 0x00, 0x00, 0x00, 0x18, 0x98, 0x24, 0x63, 0x06, 0x00, 0x00, 0x00,
   0xf8, 0x78, 0x26, 0x3f, 0x06, 0x00, 0x00, 0x00, 0xf0, 0x79, 0x7e, 0x3f,
   0x06, 0x00, 0x00, 0x00, 0x80, 0x19, 0x7f, 0x1f, 0x06, 0x00, 0x00, 0x00,
   0x80, 0x19, 0x63, 0x33, 0x06, 0x00, 0x00, 0x00, 0x80, 0x19, 0x63, 0x63,
   0x06, 0x00, 0x00, 0x00, 0xf8, 0x18, 0x63, 0x63, 0x7e, 0x00, 0x00, 0x00,
   0x38, 0x18, 0x63, 0x63, 0x7c, 0x00, 0x00, 0x00, 0x00, 0x00, 0x00, 0x00,
   0x00, 0x00, 0x00, 0x00, 0x00, 0x00, 0x00, 0x00, 0x00, 0x00, 0x00, 0x00,
   0x00, 0x00, 0x00, 0x00, 0x00, 0x00, 0x00, 0x00};
