#define linux_width 64
#define linux_height 64
static unsigned char linux_bits[] = {
   0x00, 0x00, 0x00, 0x00, 0x00, 0x00, 0x00, 0x00, 0x00, 0x00, 0x00, 0x00,
   0x00, 0x00, 0x00, 0x00, 0xe0, 0xff, 0x1f, 0x00, 0x00, 0x00, 0x00, 0x00,
   0x10, 0x00, 0x18, 0x00, 0x00, 0x00, 0x00, 0x00, 0x08, 0x00, 0x14, 0x00,
   0xf8, 0x01, 0x00, 0x00, 0xfc, 0xff, 0x13, 0x00, 0xfe, 0x07, 0x00, 0x00,
   0x04, 0x00, 0x12, 0x80, 0xff, 0x1f, 0x00, 0x00, 0x04, 0x00, 0x12, 0x80,
   0xff, 0x3d, 0x00, 0x00, 0xe4, 0x7f, 0x12, 0x80, 0xff, 0x3f, 0x00, 0x00,
   0xe4, 0x7f, 0x12, 0xc0, 0xff, 0x7f, 0x00, 0x00, 0x04, 0x00, 0x12, 0xc0,
   0xff, 0x7f, 0x00, 0x00, 0xe4, 0x7f, 0x12, 0xc0, 0xff, 0x7e, 0x00, 0x00,
   0x24, 0x40, 0x12, 0x40, 0x38, 0x78, 0x00, 0x00, 0xe4, 0x7f, 0x12, 0x40,
   0xbb, 0x7b, 0x00, 0x00, 0x24, 0x40, 0x12, 0x40, 0xbb, 0x7b, 0x00, 0x00,
   0xe4, 0x7f, 0x12, 0x80, 0x02, 0x79, 0x00, 0x00, 0x24, 0x40, 0x12, 0x80,
   0x01, 0xf8, 0x00, 0x00, 0xe4, 0x7f, 0x12, 0x80, 0x00, 0xf8, 0x00, 0x00,
   0x04, 0x00, 0x12, 0x80, 0x42, 0xfa, 0x00, 0x00, 0x04, 0x00, 0x12, 0x80,
   0x3d, 0xf9, 0x01, 0x00, 0x04, 0x00, 0x12, 0x80, 0x82, 0xb8, 0x01, 0x00,
   0x04, 0x00, 0x12, 0x40, 0x7c, 0xf0, 0x03, 0x00, 0x04, 0x00, 0x12, 0x60,
   0x00, 0xe0, 0x07, 0x00, 0x04, 0x00, 0x12, 0x70, 0x00, 0xe0, 0x0f, 0x00,
   0x04, 0x00, 0x12, 0x38, 0x00, 0xc0, 0x0f, 0x00, 0x04, 0x00, 0x12, 0x1c,
   0x00, 0xc0, 0x1f, 0x00, 0xe4, 0x7f, 0x12, 0x1e, 0x00, 0xc0, 0x3f, 0x00,
   0x04, 0x00, 0x12, 0x0e, 0x00, 0x80, 0x7f, 0x00, 0xe4, 0x7f, 0x12, 0x0e,
   0x00, 0x00, 0x7f, 0x00, 0x04, 0x00, 0x12, 0x0f, 0x00, 0x00, 0x7e, 0x00,
   0xe4, 0x7f, 0x92, 0x07, 0x00, 0x00, 0xfe, 0x00, 0x04, 0x00, 0x8a, 0x03,
   0x00, 0x00, 0xfe, 0x01, 0x04, 0x00, 0x86, 0x03, 0x00, 0x00, 0xfe, 0x01,
   0xfc, 0xff, 0xc3, 0x01, 0x00, 0x00, 0xfe, 0x03, 0x00, 0x00, 0xe0, 0x01,
   0x00, 0x00, 0xfe, 0x03, 0x00, 0x00, 0xe0, 0x01, 0x00, 0x00, 0xfe, 0x03,
   0x00, 0x00, 0xe0, 0x01, 0x00, 0x00, 0xfe, 0x03, 0x00, 0x00, 0x20, 0x01,
   0x00, 0x00, 0xfe, 0x03, 0x00, 0x00, 0x20, 0x02, 0x00, 0x80, 0xff, 0x01,
   0x00, 0x00, 0x18, 0x0c, 0x00, 0x40, 0x7e, 0x02, 0x00, 0x00, 0x08, 0x18,
   0x00, 0x40, 0x7e, 0x02, 0x00, 0x80, 0x07, 0x70, 0x00, 0x40, 0x3c, 0x04,
   0x00, 0x40, 0x00, 0xf0, 0x00, 0x40, 0x00, 0x08, 0x00, 0x40, 0x10, 0xe0,
   0x01, 0x40, 0x20, 0x10, 0x00, 0x40, 0x20, 0xc0, 0x00, 0x40, 0x10, 0x20,
   0x00, 0x40, 0xc0, 0x80, 0x00, 0x78, 0x08, 0x20, 0x00, 0x40, 0x00, 0x81,
   0x00, 0x7c, 0x08, 0x10, 0x00, 0x40, 0x00, 0x86, 0x01, 0x3f, 0x08, 0x0e,
   0x00, 0x80, 0x01, 0x88, 0xff, 0x7f, 0x88, 0x01, 0x00, 0x00, 0x3f, 0x80,
   0xff, 0x7f, 0x48, 0x00, 0x00, 0x00, 0xf0, 0xe3, 0x03, 0xc0, 0x31, 0x00,
   0x00, 0x00, 0x00, 0x7c, 0x00, 0x80, 0x0f, 0x00, 0x00, 0x00, 0x00, 0x00,
   0x00, 0x00, 0x00, 0x00, 0x00, 0x00, 0x00, 0x00, 0x00, 0x00, 0x00, 0x00,
   0x00, 0x60, 0xf0, 0x8c, 0x99, 0x19, 0x06, 0x00, 0x00, 0x60, 0xf0, 0x9c,
   0x99, 0x39, 0x07, 0x00, 0x00, 0x60, 0x60, 0x9c, 0x99, 0xe1, 0x01, 0x00,
   0x00, 0x60, 0x60, 0xbc, 0x99, 0xc1, 0x00, 0x00, 0x00, 0x60, 0x60, 0xec,
   0x99, 0xc1, 0x00, 0x00, 0x00, 0x60, 0x60, 0xcc, 0x99, 0xe1, 0x01, 0x00,
   0x00, 0xe0, 0xf3, 0xcc, 0xf9, 0x39, 0x07, 0x00, 0x00, 0xe0, 0xf3, 0x8c,
   0xf1, 0x18, 0x06, 0x00, 0x00, 0x00, 0x00, 0x00, 0x00, 0x00, 0x00, 0x00,
   0x00, 0x00, 0x00, 0x00, 0x00, 0x00, 0x00, 0x00};
