#define penquin_width 64
#define penquin_height 64
static unsigned char penquin_bits[] = {
  0x00, 0x00, 0x00, 0xf0, 0x0f, 0x00, 0x00, 0x00, 0x00, 0x00, 0x00, 0xfe,
  0x3f, 0x00, 0x00, 0x00, 0x00, 0x00, 0x00, 0xff, 0xff, 0x00, 0x00, 0x00,
  0x00, 0x00, 0x80, 0xff, 0xff, 0x01, 0x00, 0x00, 0x00, 0x00, 0xc0, 0xff,
  0xef, 0x03, 0x00, 0x00, 0x00, 0x00, 0xc0, 0xff, 0xff, 0x03, 0x00, 0x00,
  0x00, 0x00, 0xc0, 0xff, 0xff, 0x07, 0x00, 0x00, 0x00, 0x00, 0xe0, 0xff,
  0xff, 0x0f, 0x00, 0x00, 0x00, 0x00, 0xe0, 0xff, 0xff, 0x0f, 0x00, 0x00,
  0x00, 0x00, 0xe0, 0xff, 0xf3, 0x0f, 0x00, 0x00, 0x00, 0x00, 0xe0, 0xf8,
  0xc0, 0x0f, 0x00, 0x00, 0x00, 0x00, 0x60, 0xf0, 0xc0, 0x0f, 0x00, 0x00,
  0x00, 0x00, 0x60, 0xf7, 0x9e, 0x0f, 0x00, 0x00, 0x00, 0x00, 0x60, 0xf7,
  0x9e, 0x0f, 0x00, 0x00, 0x00, 0x00, 0x40, 0x87, 0x9e, 0x0f, 0x00, 0x00,
  0x00, 0x00, 0xc0, 0x02, 0xcc, 0x0f, 0x00, 0x00, 0x00, 0x00, 0xc0, 0x01,
  0xc0, 0x1f, 0x00, 0x00, 0x00, 0x00, 0xc0, 0x00, 0x80, 0x1f, 0x00, 0x00,
  0x00, 0x00, 0xc0, 0x00, 0xc0, 0x1f, 0x00, 0x00, 0x00, 0x00, 0xc0, 0x05,
  0xd1, 0x1f, 0x00, 0x00, 0x00, 0x00, 0xc0, 0xf9, 0x88, 0x3b, 0x00, 0x00,
  0x00, 0x00, 0xc0, 0x02, 0x84, 0x7f, 0x00, 0x00, 0x00, 0x00, 0xe0, 0x04,
  0x03, 0x7f, 0x00, 0x00, 0x00, 0x00, 0x60, 0xf8, 0x00, 0xff, 0x00, 0x00,
  0x00, 0x00, 0x70, 0x00, 0x00, 0xfe, 0x01, 0x00, 0x00, 0x00, 0x38, 0x00,
  0x00, 0xfe, 0x03, 0x00, 0x00, 0x00, 0x1c, 0x00, 0x00, 0xfc, 0x03, 0x00,
  0x00, 0x00, 0x1e, 0x00, 0x00, 0xfc, 0x07, 0x00, 0x00, 0x00, 0x0f, 0x00,
  0x00, 0xf8, 0x0f, 0x00, 0x00, 0x80, 0x0f, 0x00, 0x00, 0xf8, 0x1f, 0x00,
  0x00, 0x80, 0x0f, 0x00, 0x00, 0xf0, 0x3f, 0x00, 0x00, 0xc0, 0x07, 0x00,
  0x00, 0xf0, 0x3f, 0x00, 0x00, 0xc0, 0x07, 0x00, 0x00, 0xe0, 0x7f, 0x00,
  0x00, 0xe0, 0x03, 0x00, 0x00, 0xc0, 0x7f, 0x00, 0x00, 0xe0, 0x01, 0x00,
  0x00, 0xc0, 0xff, 0x00, 0x00, 0xf0, 0x01, 0x00, 0x00, 0xc0, 0xff, 0x00,
  0x00, 0xf0, 0x00, 0x00, 0x00, 0xc0, 0xff, 0x01, 0x00, 0xf0, 0x00, 0x00,
  0x00, 0xc0, 0xff, 0x01, 0x00, 0xf8, 0x00, 0x00, 0x00, 0x80, 0xff, 0x01,
  0x00, 0x7c, 0x00, 0x00, 0x00, 0x80, 0xff, 0x03, 0x00, 0x7e, 0x00, 0x00,
  0x00, 0x80, 0xff, 0x03, 0x00, 0x7e, 0x00, 0x00, 0x00, 0x80, 0xff, 0x03,
  0x00, 0x7e, 0x00, 0x00, 0x00, 0x80, 0xff, 0x03, 0x00, 0x7e, 0x00, 0x00,
  0x00, 0x80, 0xff, 0x03, 0x00, 0x66, 0x00, 0x00, 0x00, 0x80, 0xff, 0x03,
  0x00, 0xc2, 0x00, 0x00, 0x00, 0xe0, 0xff, 0x01, 0x00, 0x83, 0x03, 0x00,
  0x00, 0x90, 0xff, 0x03, 0x80, 0x01, 0x07, 0x00, 0x00, 0x88, 0x7f, 0x02,
  0xc0, 0x00, 0x0e, 0x00, 0x00, 0x88, 0x3f, 0x06, 0x3c, 0x00, 0x3c, 0x00,
  0x00, 0x08, 0x1f, 0x04, 0x1a, 0x00, 0xfc, 0x00, 0x00, 0x08, 0x00, 0x0c,
  0x01, 0x00, 0xf8, 0x00, 0x00, 0x08, 0x00, 0x10, 0x01, 0x01, 0xf0, 0x01,
  0x00, 0x08, 0x10, 0x20, 0x01, 0x06, 0xe0, 0x00, 0x00, 0x0c, 0x08, 0x40,
  0x01, 0x08, 0x20, 0x00, 0x00, 0x0f, 0x08, 0x80, 0x01, 0x30, 0x40, 0x00,
  0x80, 0x0f, 0x04, 0x80, 0x01, 0x40, 0x40, 0x00, 0xe0, 0x0f, 0x02, 0x60,
  0x01, 0x80, 0x81, 0x01, 0xfc, 0x07, 0x02, 0x18, 0x01, 0x00, 0x82, 0xff,
  0xff, 0x07, 0x01, 0x06, 0x0e, 0x00, 0x80, 0xff, 0xff, 0x0f, 0x80, 0x01,
  0xfc, 0x03, 0xc0, 0xff, 0xff, 0x0f, 0x60, 0x00, 0x00, 0x3f, 0xf0, 0x03,
  0x00, 0x3c, 0x18, 0x00, 0x00, 0xe0, 0x7f, 0x00, 0x00, 0xfc, 0x0f, 0x00,
  0x00, 0x00, 0x3f, 0x00, 0x00, 0xf0, 0x07, 0x00, };
