#define pmax_width 48
#define pmax_height 48
static char pmax_bits[] = {
   0x00, 0x00, 0x00, 0x00, 0x00, 0x00, 0x00, 0x00, 0x00, 0x00, 0x00, 0x00,
   0xf8, 0xff, 0xff, 0xff, 0xff, 0x07, 0x0c, 0x00, 0x00, 0x00, 0x00, 0x0c,
   0xe4, 0xff, 0xff, 0xff, 0xff, 0x09, 0x24, 0x00, 0x00, 0x00, 0x00, 0x09,
   0x24, 0x00, 0x00, 0x00, 0x00, 0x09, 0x24, 0x00, 0x00, 0x00, 0x00, 0x09,
   0x24, 0x00, 0x00, 0x00, 0x00, 0x09, 0x24, 0x00, 0x00, 0x00, 0x00, 0x09,
   0x24, 0x1f, 0x41, 0x38, 0x42, 0x09, 0x24, 0x21, 0x63, 0x28, 0x24, 0x09,
   0x24, 0x21, 0x55, 0x44, 0x24, 0x09, 0x24, 0x21, 0x49, 0x44, 0x18, 0x09,
   0x24, 0x21, 0x49, 0x44, 0x18, 0x09, 0x24, 0x1f, 0x41, 0x44, 0x18, 0x09,
   0x24, 0x01, 0x41, 0xfe, 0x18, 0x09, 0x24, 0x01, 0x41, 0x82, 0x24, 0x09,
   0x24, 0x01, 0x41, 0x82, 0x24, 0x09, 0x24, 0x01, 0x41, 0x82, 0x42, 0x09,
   0x24, 0x01, 0x41, 0x82, 0x42, 0x09, 0x24, 0x00, 0x00, 0x00, 0x00, 0x09,
   0x24, 0x00, 0x00, 0x00, 0x00, 0x09, 0x24, 0x00, 0x00, 0x00, 0x00, 0x09,
   0x24, 0x00, 0x00, 0x00, 0x00, 0x09, 0xe4, 0xff, 0xff, 0xff, 0xff, 0x09,
   0x04, 0x00, 0x00, 0x00, 0x00, 0x08, 0x0c, 0x00, 0x00, 0x00, 0x00, 0x0c,
   0xf8, 0xff, 0xff, 0xff, 0xff, 0x07, 0x00, 0xf0, 0xff, 0xff, 0x07, 0x00,
   0x00, 0xf0, 0xff, 0xff, 0x07, 0x00, 0x00, 0xf0, 0xff, 0xff, 0x07, 0x00,
   0xfc, 0xff, 0xff, 0xff, 0xff, 0x3f, 0x02, 0x00, 0x00, 0x00, 0x00, 0x40,
   0x02, 0x00, 0x00, 0x00, 0x00, 0x40, 0xc2, 0x1f, 0x00, 0x00, 0x00, 0x40,
   0xfe, 0xff, 0xff, 0xff, 0xff, 0x7f, 0x02, 0x00, 0x00, 0x00, 0x00, 0x40,
   0x02, 0x00, 0x00, 0x00, 0x00, 0x40, 0x02, 0x00, 0x00, 0x00, 0x00, 0x40,
   0x02, 0x00, 0x00, 0x00, 0x00, 0x40, 0x02, 0x00, 0x00, 0x00, 0x00, 0x40,
   0x02, 0x00, 0x00, 0x00, 0x00, 0x40, 0xfe, 0xff, 0xff, 0xff, 0xff, 0x7f,
   0x02, 0x00, 0x00, 0x00, 0x00, 0x40, 0xfc, 0xff, 0xff, 0xff, 0xff, 0x3f,
   0x00, 0x00, 0x00, 0x00, 0x00, 0x00, 0x00, 0x00, 0x00, 0x00, 0x00, 0x00};
