#define ptrd_width 16
#define ptrd_height 16
static char ptrd_bits[] = {
   0xff, 0xff, 0x01, 0x80, 0xfa, 0x5f, 0x12, 0x48, 0x14, 0x28, 0x24, 0x24,
   0x48, 0x12, 0x48, 0x12, 0x90, 0x09, 0x90, 0x09, 0x20, 0x04, 0x20, 0x04,
   0x40, 0x02, 0x40, 0x02, 0x80, 0x01, 0x80, 0x01};
