#define ptrl_width 16
#define ptrl_height 16
static char ptrl_bits[] = {
   0x00, 0xc0, 0x00, 0xb0, 0x00, 0x8c, 0x00, 0xa3, 0xc0, 0xb8, 0x30, 0xa6,
   0x8c, 0xa1, 0x63, 0xa0, 0x63, 0xa0, 0x8c, 0xa1, 0x30, 0xa6, 0xc0, 0xb8,
   0x00, 0xa3, 0x00, 0x8c, 0x00, 0xb0, 0x00, 0xc0};
