#define ptrr_width 16
#define ptrr_height 16
static char ptrr_bits[] = {
   0x03, 0x00, 0x0d, 0x00, 0x31, 0x00, 0xc5, 0x00, 0x1d, 0x03, 0x65, 0x0c,
   0x85, 0x31, 0x05, 0xc6, 0x05, 0xc6, 0x85, 0x31, 0x65, 0x0c, 0x1d, 0x03,
   0xc5, 0x00, 0x31, 0x00, 0x0d, 0x00, 0x03, 0x00};
