#define ptru_width 16
#define ptru_height 16
static char ptru_bits[] = {
   0x80, 0x01, 0x80, 0x01, 0x40, 0x02, 0x40, 0x02, 0x20, 0x04, 0xa0, 0x05,
   0x90, 0x09, 0x50, 0x0a, 0x48, 0x12, 0x28, 0x14, 0x24, 0x24, 0x14, 0x28,
   0x12, 0x48, 0xfa, 0x5f, 0x01, 0x80, 0xff, 0xff};
