#define sequent_width 48
#define sequent_height 48
static char sequent_bits[] = {
   0x00, 0x00, 0x00, 0x00, 0x00, 0x00, 0x00, 0x00, 0x00, 0x00, 0x00, 0x00,
   0x00, 0x00, 0x00, 0x80, 0x07, 0x20, 0x00, 0x00, 0x00, 0x80, 0x07, 0x38,
   0x00, 0x00, 0x00, 0x80, 0x07, 0x3e, 0x00, 0x00, 0x00, 0x80, 0x87, 0x3f,
   0x00, 0x00, 0x00, 0x80, 0xe7, 0x1f, 0x00, 0x00, 0x00, 0x80, 0xff, 0x07,
   0x00, 0x00, 0x00, 0x80, 0xff, 0x01, 0x00, 0x00, 0x00, 0x80, 0x7f, 0x00,
   0x00, 0x00, 0x00, 0xe0, 0x1f, 0x00, 0x00, 0x00, 0x00, 0xf8, 0x07, 0x00,
   0x00, 0x00, 0x00, 0xfc, 0x87, 0x00, 0x00, 0x00, 0x00, 0xfc, 0xe7, 0x00,
   0x00, 0x00, 0x00, 0x9c, 0xff, 0x00, 0x00, 0x00, 0x00, 0x84, 0xff, 0x00,
   0x00, 0x00, 0x00, 0x80, 0x7f, 0x00, 0x00, 0x00, 0x00, 0xe0, 0x1f, 0x00,
   0x00, 0x00, 0x00, 0xf8, 0x07, 0x00, 0x00, 0x00, 0x00, 0xfe, 0x07, 0x00,
   0x00, 0x00, 0x80, 0xff, 0x07, 0x00, 0x00, 0x00, 0xe0, 0x9f, 0x07, 0x00,
   0x00, 0x00, 0xf0, 0x87, 0x07, 0x00, 0x00, 0x00, 0xf0, 0x81, 0x07, 0x00,
   0x00, 0x00, 0x70, 0x80, 0x07, 0x00, 0x00, 0x00, 0x10, 0x80, 0x07, 0x00,
   0x00, 0x00, 0x00, 0x00, 0x00, 0x00, 0x00, 0x00, 0x00, 0x00, 0x00, 0x00,
   0x00, 0x00, 0x00, 0x00, 0x00, 0x00, 0x00, 0x00, 0x00, 0x00, 0x00, 0x00,
   0x00, 0x00, 0x00, 0x00, 0x00, 0x00, 0x00, 0x00, 0x00, 0x00, 0x00, 0x00,
   0x00, 0x00, 0x00, 0x00, 0x00, 0x00, 0x00, 0x00, 0x00, 0x00, 0x00, 0x00,
   0x00, 0x00, 0x00, 0x00, 0x00, 0x00, 0x00, 0x00, 0x00, 0x00, 0x00, 0x00,
   0x00, 0x00, 0x00, 0x00, 0x00, 0x00, 0x00, 0x00, 0x00, 0x00, 0x00, 0x00,
   0x00, 0x00, 0x00, 0x00, 0x00, 0x00, 0x00, 0x00, 0x00, 0x00, 0x00, 0x00,
   0x00, 0x00, 0x00, 0x00, 0x00, 0x00, 0x00, 0x00, 0x00, 0x00, 0x00, 0x00,
   0x00, 0x00, 0x00, 0x00, 0x00, 0x00, 0x00, 0x00, 0x00, 0x00, 0x00, 0x00,
   0x00, 0x00, 0x00, 0x00, 0x00, 0x00, 0x00, 0x00, 0x00, 0x00, 0x00, 0x00,
   0x00, 0x00, 0x00, 0x00, 0x00, 0x00, 0x00, 0x00, 0x00, 0x00, 0x00, 0x00};
