#define sgi64_width 64
#define sgi64_height 64
static unsigned char sgi64_bits[] = {
   0x00, 0x00, 0x00, 0x00, 0x00, 0x00, 0x00, 0x00, 0x00, 0x00, 0x00, 0x80,
   0xff, 0xff, 0xff, 0xff, 0x00, 0x00, 0x00, 0xf0, 0xaa, 0xaa, 0xaa, 0xaa,
   0x00, 0x00, 0x00, 0x5f, 0x55, 0x55, 0x55, 0xd5, 0x00, 0x00, 0xc0, 0xaa,
   0xaa, 0xaa, 0xaa, 0x6a, 0x00, 0x00, 0xe0, 0xff, 0xff, 0xff, 0xff, 0xff,
   0x00, 0x00, 0x30, 0x00, 0x00, 0x00, 0x00, 0x60, 0x00, 0x00, 0x10, 0x00,
   0x00, 0x00, 0x00, 0xc0, 0x00, 0x00, 0x10, 0xff, 0xff, 0xff, 0xff, 0x47,
   0x00, 0x00, 0x90, 0x00, 0x00, 0x00, 0x00, 0xc8, 0x00, 0x00, 0x90, 0x00,
   0x00, 0x00, 0x00, 0x48, 0x00, 0x00, 0x90, 0x02, 0x08, 0x08, 0x60, 0xc8,
   0x00, 0x00, 0x90, 0x04, 0x18, 0x08, 0x30, 0x48, 0x00, 0x00, 0x9e, 0x08,
   0x10, 0x08, 0x18, 0xc8, 0x00, 0x80, 0x91, 0x10, 0x30, 0x08, 0x0c, 0x48,
   0x00, 0x60, 0x90, 0x00, 0x20, 0x08, 0x00, 0xc8, 0x00, 0x10, 0x90, 0x00,
   0x00, 0x00, 0x00, 0x48, 0x00, 0x0c, 0x94, 0x00, 0x00, 0x00, 0x60, 0xc8,
   0x00, 0x03, 0x9d, 0xf0, 0xc0, 0xf1, 0x13, 0x48, 0x80, 0xc0, 0x92, 0xfc,
   0xf1, 0xf3, 0x0b, 0xc8, 0x60, 0x50, 0x9d, 0x8e, 0x39, 0xc7, 0x08, 0x48,
   0x18, 0xa8, 0x93, 0x06, 0x18, 0xc6, 0x68, 0xc8, 0xfc, 0xff, 0x91, 0x06,
   0x0c, 0xc0, 0x98, 0x48, 0x04, 0x54, 0x91, 0x06, 0x0c, 0xc0, 0x88, 0xc8,
   0x04, 0x54, 0x91, 0x0e, 0x0c, 0xc0, 0x88, 0x48, 0x04, 0x54, 0x91, 0x7c,
   0xcc, 0xc7, 0x70, 0xc8, 0x04, 0x54, 0x91, 0xe0, 0xcc, 0xc7, 0x00, 0x48,
   0x04, 0x54, 0x91, 0x80, 0x0d, 0xc6, 0x00, 0xc8, 0x04, 0x56, 0x91, 0x80,
   0x0d, 0xc6, 0x40, 0x4a, 0x04, 0x56, 0x91, 0x80, 0x0d, 0xc6, 0x40, 0xca,
   0x04, 0x56, 0x91, 0x80, 0x1d, 0xc6, 0x40, 0x4a, 0x04, 0x56, 0x91, 0x86,
   0x39, 0xc7, 0x40, 0xca, 0x04, 0x55, 0x91, 0xfe, 0xf0, 0xf7, 0xc3, 0x4b,
   0x04, 0x55, 0x91, 0x7c, 0xe0, 0xf7, 0x03, 0xca, 0x04, 0x55, 0x91, 0x00,
   0x00, 0x00, 0x00, 0x4a, 0x04, 0x55, 0x91, 0x00, 0x00, 0x00, 0x00, 0xca,
   0x84, 0x55, 0x91, 0x20, 0x20, 0x08, 0x08, 0x4a, 0x84, 0x55, 0x91, 0x10,
   0x10, 0x08, 0x10, 0xc8, 0x84, 0x55, 0x91, 0x08, 0x10, 0x08, 0x20, 0x48,
   0x44, 0x55, 0x91, 0x04, 0x08, 0x08, 0x40, 0xc8, 0x44, 0x55, 0x91, 0x02,
   0x08, 0x08, 0x80, 0x48, 0x44, 0x55, 0x91, 0x00, 0x04, 0x08, 0x00, 0xc8,
   0x64, 0x55, 0x91, 0x00, 0x00, 0x00, 0x00, 0x48, 0x64, 0x55, 0x91, 0x00,
   0x00, 0x00, 0x00, 0xc8, 0x64, 0x55, 0x11, 0xff, 0xff, 0xff, 0xff, 0x47,
   0x64, 0x55, 0x91, 0x00, 0x00, 0x00, 0x00, 0xc0, 0x54, 0x55, 0x51, 0x3d,
   0x00, 0x00, 0x00, 0x40, 0x54, 0x55, 0x91, 0x3c, 0x00, 0x00, 0x00, 0xc0,
   0x54, 0x55, 0x31, 0x00, 0x00, 0x00, 0x00, 0x60, 0x54, 0x55, 0xe1, 0xff,
   0xff, 0xff, 0xff, 0xbf, 0x54, 0x55, 0x01, 0xa8, 0xaa, 0xaa, 0xaa, 0xaa,
   0x4c, 0x55, 0x01, 0xfc, 0xff, 0xff, 0xff, 0x57, 0x4c, 0x55, 0x01, 0x02,
   0x00, 0x00, 0x00, 0x28, 0x4c, 0x55, 0x01, 0x72, 0x00, 0x00, 0x60, 0x18,
   0x44, 0x55, 0x01, 0x02, 0x00, 0x00, 0x00, 0x08, 0x04, 0x55, 0x01, 0xfc,
   0xff, 0xff, 0xff, 0x07, 0x04, 0x55, 0x01, 0x0c, 0x00, 0x00, 0x00, 0x00,
   0x24, 0x55, 0x01, 0x02, 0x00, 0x00, 0x00, 0x00, 0x54, 0x55, 0x81, 0x01,
   0x00, 0x00, 0x00, 0x00, 0x8c, 0x55, 0x61, 0x00, 0x00, 0x00, 0x00, 0x00,
   0x54, 0x55, 0x11, 0x00, 0x00, 0x00, 0x00, 0x00, 0x24, 0x55, 0x0d, 0x00,
   0x00, 0x00, 0x00, 0x00, 0x04, 0x55, 0x03, 0x00, 0x00, 0x00, 0x00, 0x00,
   0xfc, 0xff, 0x01, 0x00, 0x00, 0x00, 0x00, 0x00};
