#define sgimp_width 64
#define sgimp_height 64
static unsigned char sgimp_bits[] = {
   0x00, 0x00, 0x00, 0x00, 0x00, 0x00, 0x00, 0x00, 0x00, 0x00, 0x00, 0x80,
   0xff, 0xff, 0xff, 0xff, 0x00, 0x00, 0x00, 0xf0, 0xaa, 0xaa, 0xaa, 0xaa,
   0x00, 0x00, 0x00, 0x5f, 0x55, 0x55, 0x55, 0xd5, 0x00, 0x00, 0xc0, 0xaa,
   0xaa, 0xaa, 0xaa, 0x6a, 0x00, 0x00, 0xe0, 0xff, 0xff, 0xff, 0xff, 0xff,
   0x00, 0x00, 0x30, 0x00, 0x00, 0x00, 0x00, 0x60, 0x00, 0x00, 0x10, 0x00,
   0x00, 0x00, 0x00, 0xc0, 0x00, 0x00, 0x10, 0xff, 0xff, 0xff, 0xff, 0x47,
   0x00, 0x00, 0x90, 0x00, 0x00, 0x00, 0x00, 0xc8, 0x00, 0x00, 0x90, 0x00,
   0x00, 0x00, 0x00, 0x48, 0x00, 0x00, 0x90, 0x00, 0x00, 0x00, 0x00, 0xc8,
   0x00, 0x00, 0x90, 0x00, 0x00, 0x00, 0x00, 0x48, 0x00, 0x00, 0x9e, 0x00,
   0x0f, 0x1c, 0x3f, 0xc8, 0x00, 0x80, 0x91, 0xc0, 0x1f, 0x3f, 0x3f, 0x48,
   0x00, 0x60, 0x90, 0xe0, 0x98, 0x73, 0x0c, 0xc8, 0x00, 0x10, 0x90, 0x60,
   0x80, 0x61, 0x0c, 0x48, 0x00, 0x0c, 0x94, 0x60, 0xc0, 0x00, 0x0c, 0xc8,
   0x00, 0x03, 0x9d, 0x60, 0xc0, 0x00, 0x0c, 0x48, 0x80, 0xc0, 0x92, 0xe0,
   0xc0, 0x00, 0x0c, 0xc8, 0x60, 0x50, 0x9d, 0xc0, 0xc7, 0x7c, 0x0c, 0x48,
   0x18, 0xa8, 0x93, 0x00, 0xce, 0x7c, 0x0c, 0xc8, 0xfc, 0xff, 0x91, 0x00,
   0xd8, 0x60, 0x0c, 0x48, 0x04, 0x54, 0x91, 0x00, 0xd8, 0x60, 0x0c, 0xc8,
   0x04, 0x54, 0x91, 0x00, 0xd8, 0x60, 0x0c, 0x48, 0x04, 0x54, 0x91, 0x00,
   0xd8, 0x61, 0x0c, 0xc8, 0x04, 0x54, 0x91, 0x60, 0x98, 0x73, 0x0c, 0x48,
   0x04, 0x54, 0x91, 0xe0, 0x0f, 0x7f, 0x3f, 0xc8, 0x04, 0x56, 0x91, 0xc0,
   0x07, 0x7e, 0x3f, 0x48, 0x04, 0x56, 0x91, 0x00, 0x00, 0x00, 0x00, 0xc8,
   0x04, 0x56, 0x91, 0x00, 0x00, 0x00, 0x00, 0x48, 0x04, 0x56, 0x91, 0x00,
   0x00, 0x00, 0x00, 0xc8, 0x04, 0x55, 0x91, 0x00, 0x18, 0xf3, 0x01, 0x48,
   0x04, 0x55, 0x91, 0x00, 0xb8, 0xf3, 0x03, 0xc8, 0x04, 0x55, 0x91, 0x00,
   0xf8, 0x33, 0x03, 0x48, 0x04, 0x55, 0x91, 0x00, 0xf8, 0x33, 0x03, 0xc8,
   0x84, 0x55, 0x91, 0x00, 0x58, 0xf3, 0x03, 0x48, 0x84, 0x55, 0x91, 0x00,
   0x18, 0xf3, 0x01, 0xc8, 0x84, 0x55, 0x91, 0x00, 0x18, 0x33, 0x00, 0x48,
   0x44, 0x55, 0x91, 0x00, 0x18, 0x33, 0x00, 0xc8, 0x44, 0x55, 0x91, 0x00,
   0x18, 0x33, 0x00, 0x48, 0x44, 0x55, 0x91, 0x00, 0x00, 0x00, 0x00, 0xc8,
   0x64, 0x55, 0x91, 0x00, 0x00, 0x00, 0x00, 0x48, 0x64, 0x55, 0x91, 0x00,
   0x00, 0x00, 0x00, 0xc8, 0x64, 0x55, 0x11, 0xff, 0xff, 0xff, 0xff, 0x47,
   0x64, 0x55, 0x91, 0x00, 0x00, 0x00, 0x00, 0xc0, 0x54, 0x55, 0x51, 0x3d,
   0x00, 0x00, 0x00, 0x40, 0x54, 0x55, 0x91, 0x3c, 0x00, 0x00, 0x00, 0xc0,
   0x54, 0x55, 0x31, 0x00, 0x00, 0x00, 0x00, 0x60, 0x54, 0x55, 0xe1, 0xff,
   0xff, 0xff, 0xff, 0xbf, 0x54, 0x55, 0x01, 0xa8, 0xaa, 0xaa, 0xaa, 0xaa,
   0x4c, 0x55, 0x01, 0xfc, 0xff, 0xff, 0xff, 0x57, 0x4c, 0x55, 0x01, 0x02,
   0x00, 0x00, 0x00, 0x28, 0x4c, 0x55, 0x01, 0x72, 0x00, 0x00, 0x60, 0x18,
   0x44, 0x55, 0x01, 0x02, 0x00, 0x00, 0x00, 0x08, 0x04, 0x55, 0x01, 0xfc,
   0xff, 0xff, 0xff, 0x07, 0x04, 0x55, 0x01, 0x0c, 0x00, 0x00, 0x00, 0x00,
   0x24, 0x55, 0x01, 0x02, 0x00, 0x00, 0x00, 0x00, 0x54, 0x55, 0x81, 0x01,
   0x00, 0x00, 0x00, 0x00, 0x8c, 0x55, 0x61, 0x00, 0x00, 0x00, 0x00, 0x00,
   0x54, 0x55, 0x11, 0x00, 0x00, 0x00, 0x00, 0x00, 0x24, 0x55, 0x0d, 0x00,
   0x00, 0x00, 0x00, 0x00, 0x04, 0x55, 0x03, 0x00, 0x00, 0x00, 0x00, 0x00,
   0xfc, 0xff, 0x01, 0x00, 0x00, 0x00, 0x00, 0x00};
