#define shrink_width 16
#define shrink_height 16
static char shrink_bits[] = {
   0x80, 0x01, 0xb0, 0x0d, 0xe0, 0x07, 0xc0, 0x03, 0x80, 0x01, 0xff, 0xff,
   0xff, 0xff, 0x00, 0x00, 0x00, 0x00, 0xff, 0xff, 0xff, 0xff, 0x80, 0x01,
   0xc0, 0x03, 0xe0, 0x07, 0xb0, 0x0d, 0x80, 0x01};
