#define spin3_width 16
#define spin3_height 16
static char spin3_bits[] = {
   0xe0, 0x07, 0xf8, 0x1f, 0x1c, 0x38, 0x0e, 0x70, 0x06, 0x60, 0x03, 0xc0,
   0x03, 0xc0, 0x03, 0xc0, 0x03, 0xc0, 0x23, 0xc0, 0x33, 0xc0, 0x36, 0x60,
   0x3e, 0x60, 0x3c, 0x30, 0x3f, 0x18, 0x3f, 0x0e};
