#define spin2_width 16
#define spin2_height 16
static char spin2_bits[] = {
   0xe3, 0x07, 0xfb, 0x1f, 0x1f, 0x38, 0x0f, 0x70, 0x3f, 0x60, 0x7f, 0xc0,
   0x00, 0xc0, 0x00, 0xc0, 0x00, 0xc0, 0x01, 0xc0, 0x01, 0xc0, 0x03, 0x60,
   0x06, 0x70, 0x1c, 0x38, 0xf8, 0x1f, 0xe0, 0x07};
