#define spin4_width 16
#define spin4_height 16
static char spin4_bits[] = {
   0xe0, 0x07, 0xf8, 0x1f, 0x1c, 0x38, 0x0e, 0x60, 0x06, 0xc0, 0x03, 0x80,
   0x03, 0x80, 0x03, 0x00, 0x03, 0x00, 0x03, 0x00, 0x03, 0xfe, 0x06, 0xfc,
   0x0e, 0xf0, 0x1c, 0xf8, 0xf8, 0xdf, 0xe0, 0xc7};
