#define spin_width 16
#define spin_height 16
static char spin_bits[] = {
   0x70, 0xfc, 0x18, 0xfc, 0x0c, 0x3c, 0x06, 0x7c, 0x06, 0x6c, 0x03, 0xcc,
   0x03, 0xc4, 0x03, 0xc0, 0x03, 0xc0, 0x03, 0xc0, 0x03, 0xc0, 0x06, 0x60,
   0x0e, 0x70, 0x1c, 0x38, 0xf8, 0x1f, 0xe0, 0x07};
