#define sun4_width 64
#define sun4_height 64
static char sun4_bits[] = {
   0x00, 0xf8, 0xff, 0xff, 0xff, 0xff, 0xff, 0x07, 0x00, 0x04, 0x00, 0x00,
   0x00, 0x00, 0x00, 0x0a, 0x00, 0x02, 0x00, 0x00, 0x00, 0x00, 0x00, 0x09,
   0x00, 0xff, 0xff, 0xff, 0xff, 0xff, 0xff, 0x08, 0x80, 0x01, 0x00, 0x00,
   0x00, 0x00, 0x80, 0x09, 0x80, 0x00, 0x00, 0x00, 0x00, 0x00, 0x00, 0x09,
   0x80, 0x00, 0x00, 0x00, 0x00, 0x00, 0x00, 0x09, 0x80, 0xf0, 0xff, 0xff,
   0xff, 0xff, 0x0f, 0x09, 0x80, 0x18, 0x00, 0x00, 0x00, 0x00, 0x18, 0x09,
   0x80, 0x08, 0x00, 0x00, 0x00, 0x00, 0x10, 0x09, 0x80, 0x08, 0x00, 0x00,
   0xc0, 0x00, 0x10, 0x09, 0x80, 0x08, 0x00, 0x00, 0xc0, 0x01, 0x10, 0x09,
   0x80, 0x08, 0x00, 0x00, 0x80, 0x03, 0x10, 0x09, 0x80, 0x08, 0x00, 0x00,
   0x18, 0x07, 0x10, 0x09, 0x80, 0x08, 0x00, 0x00, 0x38, 0x0e, 0x10, 0x09,
   0x80, 0x08, 0x00, 0x00, 0x73, 0x1c, 0x10, 0x09, 0x80, 0x08, 0x00, 0x00,
   0xe7, 0x38, 0x10, 0x09, 0x80, 0x08, 0x00, 0x00, 0xce, 0x7d, 0x10, 0x09,
   0x80, 0x08, 0x00, 0x10, 0x9c, 0xe7, 0x10, 0x09, 0x80, 0x08, 0x00, 0x78,
   0x38, 0xc3, 0x10, 0x09, 0x80, 0x08, 0x00, 0xf0, 0x71, 0x00, 0x10, 0x09,
   0x80, 0x08, 0x00, 0xe6, 0xe7, 0x00, 0x10, 0x09, 0x80, 0x08, 0x00, 0xce,
   0xff, 0x01, 0x10, 0x09, 0x80, 0x08, 0x40, 0x9c, 0xf3, 0x01, 0x10, 0x09,
   0x80, 0x08, 0xe0, 0x38, 0x87, 0x01, 0x10, 0x09, 0x80, 0x08, 0xc0, 0x71,
   0x0e, 0x00, 0x10, 0x09, 0x80, 0x08, 0x9c, 0xe3, 0x1c, 0x00, 0x10, 0x09,
   0x80, 0x08, 0x3e, 0xc7, 0x39, 0x00, 0x10, 0x09, 0x80, 0x08, 0x07, 0x8e,
   0x13, 0x00, 0x10, 0x09, 0x80, 0x08, 0x03, 0x1c, 0x07, 0x00, 0x10, 0x09,
   0x80, 0x08, 0x07, 0x38, 0x03, 0x00, 0x10, 0x09, 0x80, 0x08, 0xfe, 0xf3,
   0x01, 0x00, 0x10, 0x09, 0x80, 0x08, 0xfc, 0xe7, 0x00, 0x00, 0x10, 0x09,
   0x80, 0x08, 0x00, 0x07, 0x00, 0x00, 0x10, 0x09, 0x80, 0x08, 0x00, 0x06,
   0x00, 0x00, 0x10, 0x09, 0x80, 0x08, 0x00, 0x06, 0x00, 0x00, 0x10, 0x09,
   0x80, 0x08, 0x20, 0x07, 0x00, 0x00, 0x10, 0x09, 0x80, 0x08, 0xe0, 0x03,
   0x00, 0x00, 0x10, 0x09, 0x80, 0x08, 0xc0, 0x01, 0x00, 0x00, 0x10, 0x09,
   0x80, 0x18, 0x00, 0x00, 0x00, 0x00, 0x18, 0x09, 0x80, 0xf0, 0xff, 0xff,
   0xff, 0xff, 0x0f, 0x09, 0x80, 0x00, 0x00, 0x00, 0x00, 0x00, 0x00, 0x05,
   0x80, 0x00, 0x00, 0x00, 0x00, 0x00, 0x00, 0x03, 0x80, 0x01, 0x00, 0x00,
   0x00, 0x00, 0x80, 0x01, 0x00, 0xff, 0xff, 0xff, 0xff, 0xff, 0xff, 0x00,
   0x00, 0x00, 0x10, 0x00, 0x00, 0x10, 0x00, 0x00, 0x00, 0x00, 0x20, 0x00,
   0x00, 0x08, 0x00, 0x00, 0xf0, 0xff, 0x5f, 0x00, 0x00, 0xf4, 0xff, 0xff,
   0x08, 0x00, 0x80, 0xff, 0xff, 0x03, 0x00, 0x00, 0x04, 0x00, 0x00, 0x00,
   0x00, 0x00, 0x00, 0x80, 0xfe, 0xff, 0xff, 0xff, 0xff, 0xff, 0xff, 0x7f,
   0x02, 0x00, 0x00, 0x00, 0x00, 0x00, 0x00, 0x40, 0x22, 0x00, 0xcc, 0xcc,
   0xcc, 0xcc, 0xcc, 0x4c, 0x52, 0xfe, 0xcc, 0xcc, 0xcc, 0xcc, 0xcc, 0x4c,
   0x8a, 0xfe, 0x00, 0x00, 0x00, 0x00, 0x00, 0x40, 0x52, 0x00, 0x32, 0x33,
   0x33, 0x33, 0x33, 0x73, 0x22, 0x00, 0x33, 0x33, 0x33, 0x33, 0x33, 0x73,
   0x02, 0x00, 0x00, 0x00, 0x00, 0x00, 0x00, 0x40, 0xce, 0xcc, 0xcc, 0xcc,
   0xcc, 0xcc, 0xcc, 0x4c, 0xce, 0xcc, 0xcc, 0xcc, 0xcc, 0xcc, 0xcc, 0x4c,
   0x02, 0x00, 0x00, 0x00, 0x00, 0x00, 0x00, 0xc0, 0xfe, 0xff, 0xff, 0xff,
   0xff, 0xff, 0xff, 0x7f, 0x00, 0x00, 0x00, 0x00, 0x00, 0x00, 0x00, 0x00,
   0x00, 0x00, 0x00, 0x00, 0x00, 0x00, 0x00, 0x00};
