#define sun4sol2_width 64
#define sun4sol2_height 64
static char sun4sol2_bits[] = {
   0x00, 0xf8, 0xff, 0xff, 0xff, 0xff, 0xff, 0x07, 0x00, 0x04, 0x00, 0x00,
   0x00, 0x00, 0x00, 0x0a, 0x00, 0x02, 0x00, 0x00, 0x00, 0x00, 0x00, 0x09,
   0x00, 0xff, 0xff, 0xff, 0xff, 0xff, 0xff, 0x08, 0x80, 0x01, 0x00, 0x00,
   0x00, 0x00, 0x80, 0x09, 0x80, 0x00, 0x00, 0x00, 0x00, 0x00, 0x00, 0x09,
   0x80, 0x00, 0x00, 0x00, 0x00, 0x00, 0x00, 0x09, 0x80, 0xf0, 0xff, 0xff,
   0xff, 0xff, 0x0f, 0x09, 0x80, 0x18, 0x00, 0x00, 0x00, 0x0c, 0x18, 0x09,
   0x80, 0x08, 0x00, 0x00, 0x00, 0x0e, 0x10, 0x09, 0x80, 0x08, 0x00, 0x00,
   0x00, 0x07, 0x10, 0x09, 0x80, 0x08, 0x00, 0x00, 0x80, 0x03, 0x10, 0x09,
   0x80, 0x08, 0x00, 0x00, 0x80, 0x03, 0x10, 0x09, 0x80, 0x08, 0x00, 0x00,
   0x1c, 0x07, 0x10, 0x09, 0x80, 0x08, 0x00, 0x00, 0x3e, 0x0e, 0x10, 0x09,
   0x80, 0x08, 0x00, 0x00, 0x77, 0x1c, 0x10, 0x09, 0x80, 0x08, 0x00, 0x80,
   0xe3, 0x38, 0x16, 0x09, 0x80, 0x08, 0x00, 0x00, 0xc7, 0x70, 0x17, 0x09,
   0x80, 0x08, 0x00, 0x08, 0xce, 0xe0, 0x13, 0x09, 0x80, 0x08, 0x00, 0x3c,
   0xdc, 0xc1, 0x11, 0x09, 0x80, 0x08, 0x00, 0xf8, 0xf8, 0x07, 0x10, 0x09,
   0x80, 0x08, 0x00, 0xf8, 0x73, 0x1e, 0x10, 0x09, 0x80, 0x08, 0xc0, 0x31,
   0xe7, 0x18, 0x10, 0x09, 0x80, 0x08, 0xe0, 0x33, 0xce, 0x01, 0x10, 0x09,
   0x80, 0x08, 0x70, 0x67, 0x9e, 0x03, 0x10, 0x09, 0x80, 0x08, 0x38, 0xee,
   0x3b, 0x03, 0x10, 0x09, 0x80, 0x08, 0x70, 0xcc, 0x71, 0x00, 0x10, 0x09,
   0x80, 0x08, 0xe7, 0x86, 0x23, 0x00, 0x10, 0x09, 0x80, 0x88, 0xc7, 0x03,
   0x07, 0x00, 0x10, 0x09, 0x80, 0xc8, 0x81, 0x03, 0x0e, 0x00, 0x10, 0x09,
   0x80, 0xc8, 0x00, 0x07, 0x04, 0x00, 0x10, 0x09, 0x80, 0xc8, 0x3f, 0x0e,
   0x00, 0x00, 0x10, 0x09, 0x80, 0x88, 0x7f, 0x1c, 0xce, 0x84, 0x11, 0x09,
   0x80, 0x08, 0xe0, 0x38, 0x21, 0x45, 0x12, 0x09, 0x80, 0x08, 0xc0, 0x10,
   0x21, 0x05, 0x12, 0x09, 0x80, 0x08, 0xc4, 0x00, 0x26, 0x05, 0x11, 0x09,
   0x80, 0x08, 0xec, 0x00, 0x28, 0x85, 0x10, 0x09, 0x80, 0x08, 0x7c, 0x00,
   0x28, 0x45, 0x10, 0x09, 0x80, 0x08, 0x38, 0x00, 0xc7, 0xdc, 0x13, 0x09,
   0x80, 0x18, 0x00, 0x00, 0x00, 0x00, 0x18, 0x09, 0x80, 0xf0, 0xff, 0xff,
   0xff, 0xff, 0x0f, 0x09, 0x80, 0x00, 0x00, 0x00, 0x00, 0x00, 0x00, 0x05,
   0x80, 0x00, 0x00, 0x00, 0x00, 0x00, 0x00, 0x03, 0x80, 0x01, 0x00, 0x00,
   0x00, 0x00, 0x80, 0x01, 0x00, 0xff, 0xff, 0xff, 0xff, 0xff, 0xff, 0x00,
   0x00, 0x00, 0x10, 0x00, 0x00, 0x10, 0x00, 0x00, 0x00, 0x00, 0x20, 0x00,
   0x00, 0x08, 0x00, 0x00, 0xf0, 0xff, 0x5f, 0x00, 0x00, 0xf4, 0xff, 0xff,
   0x08, 0x00, 0x80, 0xff, 0xff, 0x03, 0x00, 0x00, 0x04, 0x00, 0x00, 0x00,
   0x00, 0x00, 0x00, 0x80, 0xfe, 0xff, 0xff, 0xff, 0xff, 0xff, 0xff, 0x7f,
   0x02, 0x00, 0x00, 0x00, 0x00, 0x00, 0x00, 0x40, 0x22, 0x00, 0xcc, 0xcc,
   0xcc, 0xcc, 0xcc, 0x4c, 0x52, 0xfe, 0xcc, 0xcc, 0xcc, 0xcc, 0xcc, 0x4c,
   0x8a, 0xfe, 0x00, 0x00, 0x00, 0x00, 0x00, 0x40, 0x52, 0x00, 0x32, 0x33,
   0x33, 0x33, 0x33, 0x73, 0x22, 0x00, 0x33, 0x33, 0x33, 0x33, 0x33, 0x73,
   0x02, 0x00, 0x00, 0x00, 0x00, 0x00, 0x00, 0x40, 0xce, 0xcc, 0xcc, 0xcc,
   0xcc, 0xcc, 0xcc, 0x4c, 0xce, 0xcc, 0xcc, 0xcc, 0xcc, 0xcc, 0xcc, 0x4c,
   0x02, 0x00, 0x00, 0x00, 0x00, 0x00, 0x00, 0xc0, 0xfe, 0xff, 0xff, 0xff,
   0xff, 0xff, 0xff, 0x7f, 0x00, 0x00, 0x00, 0x00, 0x00, 0x00, 0x00, 0x00,
   0x00, 0x00, 0x00, 0x00, 0x00, 0x00, 0x00, 0x00};
