#define symmetry_width 64
#define symmetry_height 64
static char symmetry_bits[] = {
   0x00, 0x00, 0x00, 0x00, 0x00, 0x00, 0x00, 0x00, 0x00, 0x00, 0x00, 0x00,
   0x00, 0x00, 0x00, 0x00, 0x00, 0x00, 0xf8, 0xff, 0xff, 0x7f, 0x00, 0x00,
   0x00, 0x00, 0x28, 0x89, 0x24, 0x49, 0x00, 0x00, 0x00, 0x00, 0x98, 0x44,
   0x92, 0x64, 0x00, 0x00, 0x00, 0x00, 0xf8, 0xff, 0x7f, 0x52, 0x00, 0x00,
   0x00, 0x00, 0x08, 0x00, 0xc0, 0x49, 0x00, 0x00, 0x00, 0x00, 0x08, 0x00,
   0x00, 0x65, 0x00, 0x00, 0x00, 0x00, 0x08, 0x00, 0x00, 0x53, 0x00, 0x00,
   0x00, 0x00, 0x08, 0x00, 0x04, 0x4a, 0x00, 0x00, 0x00, 0x00, 0x08, 0x00,
   0x74, 0x66, 0x00, 0x00, 0x00, 0x00, 0x08, 0x00, 0x1c, 0x52, 0x00, 0x00,
   0x00, 0x00, 0x08, 0x00, 0x07, 0x4a, 0x00, 0x00, 0x00, 0x00, 0x08, 0x00,
   0x04, 0x66, 0x00, 0x00, 0x00, 0x00, 0x08, 0x00, 0x1c, 0x52, 0x00, 0x00,
   0x00, 0x00, 0x08, 0x00, 0x07, 0x4a, 0x00, 0x00, 0x00, 0x00, 0x08, 0xc0,
   0x04, 0x66, 0x00, 0x00, 0x00, 0x00, 0x08, 0x00, 0x00, 0x52, 0x00, 0x00,
   0x00, 0x00, 0x08, 0x00, 0x00, 0x4a, 0x00, 0x00, 0x00, 0x00, 0x08, 0x00,
   0x00, 0x66, 0x00, 0x00, 0x00, 0x00, 0x08, 0x00, 0x00, 0x52, 0x00, 0x00,
   0x00, 0x00, 0x08, 0x00, 0x00, 0x4a, 0x00, 0x00, 0x00, 0x00, 0x08, 0x00,
   0x00, 0x66, 0x00, 0x00, 0x00, 0x00, 0x08, 0x00, 0x00, 0x52, 0x00, 0x00,
   0x00, 0x00, 0x08, 0x00, 0x00, 0x4a, 0x00, 0x00, 0x00, 0x00, 0x08, 0x00,
   0x00, 0x66, 0x00, 0x00, 0x00, 0x00, 0x08, 0x00, 0x00, 0x52, 0x00, 0x00,
   0x00, 0x00, 0xf8, 0xff, 0xff, 0x4b, 0x00, 0x00, 0x00, 0x00, 0xf8, 0xff,
   0xff, 0x67, 0x00, 0x00, 0x00, 0x00, 0x08, 0x00, 0x00, 0x52, 0x00, 0x00,
   0x00, 0x00, 0x08, 0x00, 0x00, 0x4a, 0x00, 0x00, 0x00, 0x00, 0x08, 0x00,
   0x00, 0x66, 0x00, 0x00, 0x00, 0x00, 0x08, 0x00, 0x00, 0x52, 0x00, 0x00,
   0x00, 0x00, 0x08, 0x00, 0x00, 0x4a, 0x00, 0x00, 0x00, 0x00, 0x08, 0x00,
   0x00, 0x66, 0x00, 0x00, 0x00, 0x00, 0x08, 0x00, 0x00, 0x52, 0x00, 0x00,
   0x00, 0x00, 0x08, 0x00, 0x00, 0x4a, 0x00, 0x00, 0x00, 0x00, 0x08, 0x00,
   0x00, 0x66, 0x00, 0x00, 0x00, 0x00, 0x08, 0x00, 0x00, 0x52, 0x00, 0x00,
   0x00, 0x00, 0x08, 0x00, 0x00, 0x4a, 0x00, 0x00, 0x00, 0x00, 0x08, 0x00,
   0x00, 0x66, 0x00, 0x00, 0x00, 0x00, 0x08, 0x00, 0x00, 0x52, 0x00, 0x00,
   0x00, 0x00, 0x08, 0x00, 0x00, 0x4a, 0x00, 0x00, 0x00, 0x00, 0x08, 0x00,
   0x00, 0x66, 0x00, 0x00, 0x00, 0x00, 0x08, 0x00, 0x00, 0x52, 0x00, 0x00,
   0x00, 0x00, 0x08, 0x00, 0x00, 0x4a, 0x00, 0x00, 0x00, 0x00, 0x08, 0x00,
   0x00, 0x66, 0x00, 0x00, 0x00, 0x00, 0x08, 0x00, 0x00, 0x52, 0x00, 0x00,
   0x00, 0x00, 0x08, 0x00, 0x00, 0x4a, 0x00, 0x00, 0x00, 0x00, 0x08, 0x00,
   0x00, 0x66, 0x00, 0x00, 0x00, 0x00, 0x08, 0x00, 0x00, 0x52, 0x00, 0x00,
   0x00, 0x00, 0x08, 0x00, 0x00, 0x4a, 0x00, 0x00, 0x00, 0x00, 0x08, 0x00,
   0x00, 0x66, 0x00, 0x00, 0x00, 0x00, 0x08, 0x00, 0x00, 0x52, 0x00, 0x00,
   0x00, 0x00, 0x08, 0x00, 0x00, 0x4a, 0x00, 0x00, 0x00, 0x00, 0x08, 0x00,
   0x00, 0x46, 0x00, 0x00, 0x00, 0x00, 0x08, 0x00, 0x00, 0x42, 0x00, 0x00,
   0x00, 0x00, 0xf8, 0xff, 0xff, 0x7f, 0x00, 0x00, 0x00, 0x00, 0x10, 0x00,
   0x00, 0x20, 0x00, 0x00, 0x00, 0x00, 0xf0, 0xff, 0xff, 0x3f, 0x00, 0x00,
   0x00, 0x00, 0x00, 0x00, 0x00, 0x00, 0x00, 0x00, 0x00, 0x00, 0x00, 0x00,
   0x00, 0x00, 0x00, 0x00, 0x00, 0x00, 0x00, 0x00, 0x00, 0x00, 0x00, 0x00,
   0x00, 0x00, 0x00, 0x00, 0x00, 0x00, 0x00, 0x00};
