#define zoom_width 32
#define zoom_height 16
static char zoom_bits[] = {
   0x03, 0x80, 0x01, 0xc0, 0x03, 0x80, 0x01, 0xc0, 0x03, 0x80, 0x01, 0xc0,
   0xc3, 0x80, 0x01, 0xc3, 0x63, 0x80, 0x01, 0xc6, 0x33, 0x80, 0x01, 0xcc,
   0x1b, 0x80, 0x01, 0xd8, 0xff, 0xff, 0xff, 0xff, 0xff, 0xff, 0xff, 0xff,
   0x1b, 0x80, 0x01, 0xd8, 0x33, 0x80, 0x01, 0xcc, 0x63, 0x80, 0x01, 0xc6,
   0xc3, 0x80, 0x01, 0xc3, 0x03, 0x80, 0x01, 0xc0, 0x03, 0x80, 0x01, 0xc0,
   0x03, 0x80, 0x01, 0xc0};
