#define zoom_width 16
#define zoom_height 16
static char zoom_bits[] = {
   0x00, 0xc0, 0x00, 0xc0, 0x00, 0xc0, 0x00, 0xc3, 0x00, 0xc6, 0x00, 0xcc,
   0x00, 0xd8, 0xff, 0xff, 0xff, 0xff, 0x00, 0xd8, 0x00, 0xcc, 0x00, 0xc6,
   0x00, 0xc3, 0x00, 0xc0, 0x00, 0xc0, 0x00, 0xc0};
