#define zoom_width 16
#define zoom_height 16
static char zoom_bits[] = {
   0x03, 0x00, 0x03, 0x00, 0x03, 0x00, 0xc3, 0x00, 0x63, 0x00, 0x33, 0x00,
   0x1b, 0x00, 0xff, 0xff, 0xff, 0xff, 0x1b, 0x00, 0x33, 0x00, 0x63, 0x00,
   0xc3, 0x00, 0x03, 0x00, 0x03, 0x00, 0x03, 0x00};
